<svg width="169" height="132" viewBox="0 0 169 132" fill="none" xmlns="http://www.w3.org/2000/svg">
<path d="M109.635 9.09001H108.025L106.235 6.68001L105.875 7.03001V9.09001H104.605V1.26001H105.875V5.43001L107.745 3.45001H109.495L107.115 5.81001L109.635 9.09001Z" fill="#FF3D62"/>
<path d="M101.459 9.23006C100.892 9.23006 100.402 9.10339 99.9889 8.85006C99.5822 8.59673 99.2855 8.25673 99.0989 7.83006L100.169 7.32006C100.289 7.58006 100.462 7.78339 100.689 7.93006C100.916 8.07673 101.172 8.15006 101.459 8.15006C101.746 8.15006 101.966 8.09673 102.119 7.99006C102.272 7.88339 102.349 7.74006 102.349 7.56006C102.349 7.38006 102.262 7.23339 102.089 7.12006C101.922 7.00006 101.652 6.90006 101.279 6.82006C100.612 6.66672 100.102 6.45339 99.7489 6.18006C99.4022 5.90006 99.2289 5.53339 99.2289 5.08006C99.2289 4.53339 99.4255 4.10339 99.8189 3.79006C100.212 3.47006 100.739 3.31006 101.399 3.31006C101.912 3.31006 102.362 3.43006 102.749 3.67006C103.142 3.91006 103.446 4.24006 103.659 4.66006L102.619 5.19006C102.472 4.93673 102.292 4.74006 102.079 4.60006C101.866 4.46006 101.642 4.39006 101.409 4.39006C101.136 4.39006 100.919 4.44672 100.759 4.56006C100.606 4.67339 100.529 4.82339 100.529 5.01006C100.529 5.17673 100.622 5.32006 100.809 5.44006C100.996 5.56006 101.299 5.67006 101.719 5.77006C103.012 6.05673 103.659 6.62006 103.659 7.46006C103.659 7.80673 103.566 8.11673 103.379 8.39006C103.192 8.65673 102.932 8.86339 102.599 9.01006C102.266 9.15673 101.886 9.23006 101.459 9.23006Z" fill="#FF3D62"/>
<path d="M98.1858 1.68001C98.1858 1.92668 98.1125 2.12001 97.9658 2.26001C97.8258 2.40001 97.6325 2.47001 97.3858 2.47001C97.1458 2.47001 96.9558 2.40001 96.8158 2.26001C96.6825 2.12001 96.6158 1.92668 96.6158 1.68001C96.6158 1.44001 96.6825 1.25001 96.8158 1.11001C96.9558 0.963348 97.1458 0.890015 97.3858 0.890015C97.6325 0.890015 97.8258 0.963348 97.9658 1.11001C98.1125 1.25001 98.1858 1.44001 98.1858 1.68001ZM98.0358 3.45002V9.09002H96.7658V3.45002H98.0358Z" fill="#FF3D62"/>
<path d="M95.8673 9.09001H94.3273L92.6673 6.09001H92.5973H91.3173V9.09001H89.9973V1.26001H92.4973C93.4506 1.26001 94.1906 1.47668 94.7173 1.91001C95.244 2.33668 95.5073 2.93001 95.5073 3.69001C95.5073 4.22334 95.374 4.68001 95.1073 5.06001C94.8473 5.43334 94.4706 5.70668 93.9773 5.88001L95.8673 9.09001ZM91.3173 4.87001H92.3373C92.9173 4.87001 93.364 4.77001 93.6773 4.57001C93.9906 4.36334 94.1473 4.07001 94.1473 3.69001C94.1473 3.30334 93.9906 3.00668 93.6773 2.80001C93.364 2.58668 92.9173 2.48001 92.3373 2.48001H91.3173V4.87001Z" fill="#FF3D62"/>
<path d="M85.6244 4.5H88.8844V5.7H85.6244V4.5Z" fill="#FF3D62"/>
<path d="M84.6214 1.68001C84.6214 1.92668 84.5481 2.12001 84.4014 2.26001C84.2614 2.40001 84.0681 2.47001 83.8214 2.47001C83.5814 2.47001 83.3914 2.40001 83.2514 2.26001C83.1181 2.12001 83.0514 1.92668 83.0514 1.68001C83.0514 1.44001 83.1181 1.25001 83.2514 1.11001C83.3914 0.963348 83.5814 0.890015 83.8214 0.890015C84.0681 0.890015 84.2614 0.963348 84.4014 1.11001C84.5481 1.25001 84.6214 1.44001 84.6214 1.68001ZM84.4714 3.45002V9.09002H83.2014V3.45002H84.4714Z" fill="#FF3D62"/>
<path d="M82.2392 4.65002H80.6992V7.26002C80.6992 7.50669 80.7659 7.70002 80.8992 7.84002C81.0392 7.97335 81.2359 8.04002 81.4892 8.04002C81.7025 8.04002 81.9125 8.00669 82.1192 7.94002V9.13002C81.8392 9.22335 81.5325 9.27002 81.1992 9.27002C80.6259 9.27002 80.1859 9.11002 79.8792 8.79002C79.5792 8.47002 79.4292 8.01335 79.4292 7.42002V4.65002H78.5492V3.45002H79.4292V1.77002H80.6992V3.45002H82.2392V4.65002Z" fill="#FF3D62"/>
<path d="M72.9254 9.09006V3.45006H74.1954V4.21006H74.2454C74.4187 3.93006 74.6521 3.71006 74.9454 3.55006C75.2387 3.39006 75.5554 3.31006 75.8954 3.31006C76.4887 3.31006 76.9487 3.50006 77.2754 3.88006C77.6087 4.25339 77.7754 4.78006 77.7754 5.46006V9.09006H76.5054V5.71006C76.5054 5.35006 76.4054 5.06006 76.2054 4.84006C76.0121 4.61339 75.7587 4.50006 75.4454 4.50006C75.0721 4.50006 74.7687 4.62006 74.5354 4.86006C74.3087 5.10006 74.1954 5.42006 74.1954 5.82006V9.09006H72.9254Z" fill="#FF3D62"/>
<path d="M72.18 9.09001H70.78L70.03 6.95001H67.26L66.51 9.09001H65.11L67.96 1.26001H69.32L72.18 9.09001ZM68.61 3.06001L67.69 5.71001H69.6L68.67 3.06001H68.61Z" fill="#FF3D62"/>
<path d="M27.5517 55.65H26.0117V58.26C26.0117 58.5067 26.0784 58.7 26.2117 58.84C26.3517 58.9734 26.5484 59.04 26.8017 59.04C27.015 59.04 27.225 59.0067 27.4317 58.94V60.13C27.1517 60.2234 26.845 60.27 26.5117 60.27C25.9384 60.27 25.4984 60.11 25.1917 59.79C24.8917 59.47 24.7417 59.0134 24.7417 58.42V55.65H23.8617V54.45H24.7417V52.77H26.0117V54.45H27.5517V55.65Z" fill="#256DFF"/>
<path d="M23.0687 52.68C23.0687 52.9267 22.9953 53.12 22.8487 53.26C22.7087 53.4 22.5153 53.47 22.2687 53.47C22.0287 53.47 21.8387 53.4 21.6987 53.26C21.5653 53.12 21.4987 52.9267 21.4987 52.68C21.4987 52.44 21.5653 52.25 21.6987 52.11C21.8387 51.9633 22.0287 51.89 22.2687 51.89C22.5153 51.89 22.7087 51.9633 22.8487 52.11C22.9953 52.25 23.0687 52.44 23.0687 52.68ZM22.9187 54.45V60.09H21.6487V54.45H22.9187Z" fill="#256DFF"/>
<path d="M20.0427 53.08C19.8094 53.08 19.616 53.15 19.4627 53.29C19.316 53.4233 19.2427 53.62 19.2427 53.88V54.45H20.6827V55.65H19.2427V60.09H17.9627V55.65H17.1527V54.45H17.9627V53.81C17.9627 53.2033 18.1194 52.7333 18.4327 52.4C18.7527 52.06 19.196 51.89 19.7627 51.89C20.1427 51.89 20.4627 51.94 20.7227 52.04V53.24C20.4694 53.1333 20.2427 53.08 20.0427 53.08Z" fill="#256DFF"/>
<path d="M13.9094 60.2301C13.3694 60.2301 12.8994 60.1101 12.4994 59.8701C12.0994 59.6301 11.7927 59.2867 11.5794 58.8401C11.3661 58.3934 11.2594 57.8701 11.2594 57.2701C11.2594 56.6701 11.3661 56.1467 11.5794 55.7001C11.7927 55.2534 12.0994 54.9101 12.4994 54.6701C12.8994 54.4301 13.3694 54.3101 13.9094 54.3101C14.4494 54.3101 14.9194 54.4301 15.3194 54.6701C15.7194 54.9101 16.0261 55.2534 16.2394 55.7001C16.4594 56.1467 16.5694 56.6701 16.5694 57.2701C16.5694 57.8701 16.4594 58.3934 16.2394 58.8401C16.0261 59.2867 15.7194 59.6301 15.3194 59.8701C14.9194 60.1101 14.4494 60.2301 13.9094 60.2301ZM13.9094 59.0301C14.3294 59.0301 14.6594 58.8734 14.8994 58.5601C15.1461 58.2401 15.2694 57.8101 15.2694 57.2701C15.2694 56.7234 15.1461 56.2934 14.8994 55.9801C14.6594 55.6667 14.3294 55.5101 13.9094 55.5101C13.4961 55.5101 13.1661 55.6667 12.9194 55.9801C12.6794 56.2934 12.5594 56.7234 12.5594 57.2701C12.5594 57.8101 12.6794 58.2401 12.9194 58.5601C13.1661 58.8734 13.4961 59.0301 13.9094 59.0301Z" fill="#256DFF"/>
<path d="M7.37948 60.0901L7.33948 54.4501H8.65948V55.4901H8.70948C8.92281 55.1167 9.20281 54.8267 9.54948 54.6201C9.90281 54.4134 10.3195 54.3101 10.7995 54.3101H10.8595V55.5901H10.7695C10.0761 55.5901 9.54948 55.7267 9.18948 56.0001C8.83614 56.2734 8.65948 56.6467 8.65948 57.1201V60.0901H7.37948Z" fill="#256DFF"/>
<path d="M3.31997 52.26C4.26664 52.26 5.0033 52.4867 5.52997 52.94C6.05664 53.3867 6.31997 54.01 6.31997 54.81C6.31997 55.61 6.0633 56.2333 5.54997 56.68C5.03664 57.1267 4.3233 57.35 3.40997 57.35H2.03997V60.09H0.719971V52.26H3.31997ZM3.14997 56.14C3.7233 56.14 4.16997 56.0233 4.48997 55.79C4.80997 55.5567 4.96997 55.23 4.96997 54.81C4.96997 54.39 4.80997 54.0633 4.48997 53.83C4.16997 53.5967 3.7233 53.48 3.14997 53.48H2.03997V56.14H3.14997Z" fill="#256DFF"/>
<path d="M130.148 129.09V121.26H131.418V124.21H131.468C131.641 123.93 131.875 123.71 132.168 123.55C132.461 123.39 132.778 123.31 133.118 123.31C133.711 123.31 134.171 123.5 134.498 123.88C134.831 124.253 134.998 124.78 134.998 125.46V129.09H133.728V125.71C133.728 125.35 133.628 125.06 133.428 124.84C133.235 124.613 132.981 124.5 132.668 124.5C132.295 124.5 131.991 124.62 131.758 124.86C131.531 125.1 131.418 125.42 131.418 125.82V129.09H130.148Z" fill="#FFAB2C"/>
<path d="M129.296 124.65H127.756V127.26C127.756 127.507 127.823 127.7 127.956 127.84C128.096 127.973 128.293 128.04 128.546 128.04C128.759 128.04 128.969 128.007 129.176 127.94V129.13C128.896 129.223 128.589 129.27 128.256 129.27C127.683 129.27 127.243 129.11 126.936 128.79C126.636 128.47 126.486 128.013 126.486 127.42V124.65H125.606V123.45H126.486V121.77H127.756V123.45H129.296V124.65Z" fill="#FFAB2C"/>
<path d="M118.594 129.09L116.784 123.45H118.164L119.264 127.48H119.314L120.414 123.45H121.744L122.854 127.48H122.904L123.994 123.45H125.374L123.574 129.09H122.234L121.104 125.08H121.054L119.924 129.09H118.594Z" fill="#FFAB2C"/>
<path d="M113.788 129.23C113.248 129.23 112.778 129.11 112.378 128.87C111.978 128.63 111.672 128.287 111.458 127.84C111.245 127.393 111.138 126.87 111.138 126.27C111.138 125.67 111.245 125.147 111.458 124.7C111.672 124.253 111.978 123.91 112.378 123.67C112.778 123.43 113.248 123.31 113.788 123.31C114.328 123.31 114.798 123.43 115.198 123.67C115.598 123.91 115.905 124.253 116.118 124.7C116.338 125.147 116.448 125.67 116.448 126.27C116.448 126.87 116.338 127.393 116.118 127.84C115.905 128.287 115.598 128.63 115.198 128.87C114.798 129.11 114.328 129.23 113.788 129.23ZM113.788 128.03C114.208 128.03 114.538 127.873 114.778 127.56C115.025 127.24 115.148 126.81 115.148 126.27C115.148 125.723 115.025 125.293 114.778 124.98C114.538 124.667 114.208 124.51 113.788 124.51C113.375 124.51 113.045 124.667 112.798 124.98C112.558 125.293 112.438 125.723 112.438 126.27C112.438 126.81 112.558 127.24 112.798 127.56C113.045 127.873 113.375 128.03 113.788 128.03Z" fill="#FFAB2C"/>
<path d="M107.258 129.09L107.218 123.45H108.538V124.49H108.588C108.802 124.117 109.082 123.827 109.428 123.62C109.782 123.413 110.198 123.31 110.678 123.31H110.738V124.59H110.648C109.955 124.59 109.428 124.727 109.068 125C108.715 125.273 108.538 125.647 108.538 126.12V129.09H107.258Z" fill="#FFAB2C"/>
<path d="M103.09 122.36C102.637 122.36 102.24 122.473 101.9 122.7C101.567 122.927 101.31 123.253 101.13 123.68C100.95 124.107 100.86 124.607 100.86 125.18C100.86 126.06 101.053 126.75 101.44 127.25C101.827 127.743 102.357 127.99 103.03 127.99C103.363 127.99 103.66 127.927 103.92 127.8C104.187 127.673 104.43 127.487 104.65 127.24V125.97H102.91V124.75H105.93V127.73C105.55 128.223 105.117 128.597 104.63 128.85C104.143 129.103 103.61 129.23 103.03 129.23C102.317 129.23 101.693 129.067 101.16 128.74C100.633 128.407 100.223 127.937 99.93 127.33C99.6433 126.717 99.5 126 99.5 125.18C99.5 124.36 99.6467 123.647 99.94 123.04C100.233 122.427 100.65 121.953 101.19 121.62C101.737 121.287 102.37 121.12 103.09 121.12C103.703 121.12 104.247 121.26 104.72 121.54C105.2 121.813 105.583 122.197 105.87 122.69L104.83 123.43C104.637 123.103 104.38 122.843 104.06 122.65C103.747 122.457 103.423 122.36 103.09 122.36Z" fill="#FFAB2C"/>
<path d="M75.3675 129.09L73.1575 123.45H74.5775L76.0575 127.55H76.1175L77.5175 123.45H78.9375L75.7775 131.54H74.3975L75.3675 129.09Z" fill="#00AA07"/>
<path d="M72.9052 124.65H71.3652V127.26C71.3652 127.507 71.4319 127.7 71.5652 127.84C71.7052 127.973 71.9019 128.04 72.1552 128.04C72.3685 128.04 72.5785 128.007 72.7852 127.94V129.13C72.5052 129.223 72.1985 129.27 71.8652 129.27C71.2919 129.27 70.8519 129.11 70.5452 128.79C70.2452 128.47 70.0952 128.013 70.0952 127.42V124.65H69.2152V123.45H70.0952V121.77H71.3652V123.45H72.9052V124.65Z" fill="#00AA07"/>
<path d="M68.4222 121.68C68.4222 121.927 68.3488 122.12 68.2022 122.26C68.0622 122.4 67.8688 122.47 67.6222 122.47C67.3822 122.47 67.1922 122.4 67.0522 122.26C66.9188 122.12 66.8522 121.927 66.8522 121.68C66.8522 121.44 66.9188 121.25 67.0522 121.11C67.1922 120.963 67.3822 120.89 67.6222 120.89C67.8688 120.89 68.0622 120.963 68.2022 121.11C68.3488 121.25 68.4222 121.44 68.4222 121.68ZM68.2722 123.45V129.09H67.0022V123.45H68.2722Z" fill="#00AA07"/>
<path d="M64.1095 126.23L66.1495 129.09H64.6195L63.3795 127.18L62.1395 129.09H60.6095L62.6895 126.17L60.7595 123.45H62.2595L63.4395 125.25L64.5595 123.45H66.0495L64.1095 126.23Z" fill="#00AA07"/>
<path d="M60.2497 125.83C60.2497 126.163 60.2164 126.46 60.1497 126.72H56.3997C56.453 127.167 56.603 127.517 56.8497 127.77C57.0964 128.017 57.4264 128.14 57.8397 128.14C58.0997 128.14 58.3364 128.073 58.5497 127.94C58.7697 127.8 58.9497 127.603 59.0897 127.35L60.1197 127.88C59.9064 128.307 59.6064 128.64 59.2197 128.88C58.833 129.113 58.373 129.23 57.8397 129.23C57.2797 129.23 56.7897 129.113 56.3697 128.88C55.9564 128.64 55.6364 128.3 55.4097 127.86C55.1897 127.413 55.0797 126.893 55.0797 126.3C55.0797 125.693 55.1864 125.167 55.3997 124.72C55.6197 124.267 55.9297 123.92 56.3297 123.68C56.7297 123.433 57.1997 123.31 57.7397 123.31C58.2464 123.31 58.6897 123.413 59.0697 123.62C59.4497 123.827 59.7397 124.12 59.9397 124.5C60.1464 124.88 60.2497 125.323 60.2497 125.83ZM58.9497 125.64C58.9497 125.26 58.8397 124.957 58.6197 124.73C58.3997 124.503 58.1064 124.39 57.7397 124.39C57.393 124.39 57.1097 124.5 56.8897 124.72C56.6697 124.933 56.5197 125.24 56.4397 125.64H58.9497Z" fill="#00AA07"/>
<path d="M52.5563 121.26H53.8263V127.56C53.8263 127.813 53.9529 127.94 54.2063 127.94H54.4863V129.14H53.8463C53.4263 129.14 53.1063 129.04 52.8863 128.84C52.6663 128.633 52.5563 128.337 52.5563 127.95V121.26Z" fill="#00AA07"/>
<path d="M46.2574 131.53V123.45H47.5274V124.18H47.5874C47.7741 123.907 48.0074 123.693 48.2874 123.54C48.5741 123.387 48.8808 123.31 49.2074 123.31C49.6608 123.31 50.0608 123.43 50.4074 123.67C50.7608 123.91 51.0341 124.25 51.2274 124.69C51.4208 125.123 51.5174 125.623 51.5174 126.19C51.5174 126.79 51.4208 127.32 51.2274 127.78C51.0341 128.24 50.7608 128.597 50.4074 128.85C50.0541 129.103 49.6508 129.23 49.1974 129.23C48.8574 129.23 48.5474 129.153 48.2674 129C47.9941 128.853 47.7674 128.64 47.5874 128.36H47.5274V131.53H46.2574ZM47.4874 126.27C47.4874 126.797 47.6108 127.22 47.8574 127.54C48.1041 127.86 48.4241 128.02 48.8174 128.02C49.2308 128.02 49.5674 127.86 49.8274 127.54C50.0874 127.22 50.2174 126.797 50.2174 126.27C50.2174 125.75 50.0908 125.33 49.8374 125.01C49.5841 124.683 49.2574 124.52 48.8574 124.52C48.4508 124.52 48.1208 124.683 47.8674 125.01C47.6141 125.33 47.4874 125.75 47.4874 126.27Z" fill="#00AA07"/>
<path d="M37.0778 129.09V123.45H38.3478V124.2H38.4078C38.5744 123.92 38.7911 123.703 39.0578 123.55C39.3244 123.39 39.6178 123.31 39.9378 123.31C40.2778 123.31 40.5711 123.397 40.8178 123.57C41.0711 123.737 41.2644 123.983 41.3978 124.31H41.4478C41.8611 123.643 42.4578 123.31 43.2378 123.31C43.7978 123.31 44.2344 123.497 44.5478 123.87C44.8611 124.243 45.0178 124.767 45.0178 125.44V129.09H43.7378V125.7C43.7378 125.327 43.6544 125.033 43.4878 124.82C43.3211 124.6 43.0944 124.49 42.8078 124.49C42.4611 124.49 42.1878 124.607 41.9878 124.84C41.7878 125.073 41.6878 125.393 41.6878 125.8V129.09H40.4078V125.7C40.4078 125.327 40.3244 125.033 40.1578 124.82C39.9911 124.6 39.7644 124.49 39.4778 124.49C39.1311 124.49 38.8544 124.607 38.6478 124.84C38.4478 125.073 38.3478 125.393 38.3478 125.8V129.09H37.0778Z" fill="#00AA07"/>
<path d="M33.3645 129.23C32.8245 129.23 32.3545 129.11 31.9545 128.87C31.5545 128.63 31.2478 128.287 31.0345 127.84C30.8211 127.393 30.7145 126.87 30.7145 126.27C30.7145 125.67 30.8211 125.147 31.0345 124.7C31.2478 124.253 31.5545 123.91 31.9545 123.67C32.3545 123.43 32.8245 123.31 33.3645 123.31C33.9045 123.31 34.3745 123.43 34.7745 123.67C35.1745 123.91 35.4811 124.253 35.6945 124.7C35.9145 125.147 36.0245 125.67 36.0245 126.27C36.0245 126.87 35.9145 127.393 35.6945 127.84C35.4811 128.287 35.1745 128.63 34.7745 128.87C34.3745 129.11 33.9045 129.23 33.3645 129.23ZM33.3645 128.03C33.7845 128.03 34.1145 127.873 34.3545 127.56C34.6011 127.24 34.7245 126.81 34.7245 126.27C34.7245 125.723 34.6011 125.293 34.3545 124.98C34.1145 124.667 33.7845 124.51 33.3645 124.51C32.9511 124.51 32.6211 124.667 32.3745 124.98C32.1345 125.293 32.0145 125.723 32.0145 126.27C32.0145 126.81 32.1345 127.24 32.3745 127.56C32.6211 127.873 32.9511 128.03 33.3645 128.03Z" fill="#00AA07"/>
<path d="M29.91 127.59C29.63 128.11 29.2433 128.513 28.75 128.8C28.2633 129.087 27.71 129.23 27.09 129.23C26.39 129.23 25.7667 129.06 25.22 128.72C24.68 128.373 24.2567 127.89 23.95 127.27C23.65 126.65 23.5 125.94 23.5 125.14C23.5 124.353 23.65 123.657 23.95 123.05C24.2567 122.437 24.6833 121.963 25.23 121.63C25.7833 121.29 26.42 121.12 27.14 121.12C27.76 121.12 28.3067 121.267 28.78 121.56C29.2533 121.853 29.6267 122.253 29.9 122.76L28.77 123.35C28.5967 123.037 28.3567 122.793 28.05 122.62C27.75 122.447 27.4267 122.36 27.08 122.36C26.6467 122.36 26.26 122.477 25.92 122.71C25.5867 122.943 25.3267 123.27 25.14 123.69C24.96 124.11 24.87 124.593 24.87 125.14C24.87 125.693 24.96 126.187 25.14 126.62C25.3267 127.053 25.5867 127.39 25.92 127.63C26.26 127.87 26.6467 127.99 27.08 127.99C27.42 127.99 27.7367 127.903 28.03 127.73C28.33 127.55 28.58 127.303 28.78 126.99L29.91 127.59Z" fill="#00AA07"/>
<path d="M167.091 60.09V58.61H168.571V60.09H167.091Z" fill="#B519FF"/>
<path d="M165.793 62.5401H164.513V59.3601H164.453C164.286 59.6401 164.07 59.8534 163.803 60.0001C163.536 60.1534 163.24 60.2301 162.913 60.2301C162.446 60.2301 162.033 60.1067 161.673 59.8601C161.313 59.6067 161.033 59.2534 160.833 58.8001C160.633 58.3401 160.533 57.8134 160.533 57.2201C160.533 56.6467 160.63 56.1401 160.823 55.7001C161.023 55.2601 161.3 54.9201 161.653 54.6801C162.006 54.4334 162.413 54.3101 162.873 54.3101C163.2 54.3101 163.5 54.3867 163.773 54.5401C164.046 54.6934 164.273 54.9101 164.453 55.1901H164.513V54.4501H165.793V62.5401ZM164.553 57.2801C164.553 56.7534 164.426 56.3301 164.173 56.0101C163.926 55.6901 163.6 55.5301 163.193 55.5301C162.793 55.5301 162.466 55.6934 162.213 56.0201C161.96 56.3401 161.833 56.7601 161.833 57.2801C161.833 57.8001 161.963 58.2201 162.223 58.5401C162.483 58.8601 162.82 59.0201 163.233 59.0201C163.626 59.0201 163.943 58.8601 164.183 58.5401C164.43 58.2201 164.553 57.8001 164.553 57.2801Z" fill="#B519FF"/>
<path d="M159.736 56.8301C159.736 57.1634 159.703 57.4601 159.636 57.7201H155.886C155.939 58.1667 156.089 58.5167 156.336 58.7701C156.583 59.0167 156.913 59.1401 157.326 59.1401C157.586 59.1401 157.823 59.0734 158.036 58.9401C158.256 58.8001 158.436 58.6034 158.576 58.3501L159.606 58.8801C159.393 59.3067 159.093 59.6401 158.706 59.8801C158.319 60.1134 157.859 60.2301 157.326 60.2301C156.766 60.2301 156.276 60.1134 155.856 59.8801C155.443 59.6401 155.123 59.3001 154.896 58.8601C154.676 58.4134 154.566 57.8934 154.566 57.3001C154.566 56.6934 154.673 56.1667 154.886 55.7201C155.106 55.2667 155.416 54.9201 155.816 54.6801C156.216 54.4334 156.686 54.3101 157.226 54.3101C157.733 54.3101 158.176 54.4134 158.556 54.6201C158.936 54.8267 159.226 55.1201 159.426 55.5001C159.633 55.8801 159.736 56.3234 159.736 56.8301ZM158.436 56.6401C158.436 56.2601 158.326 55.9567 158.106 55.7301C157.886 55.5034 157.593 55.3901 157.226 55.3901C156.879 55.3901 156.596 55.5001 156.376 55.7201C156.156 55.9334 156.006 56.2401 155.926 56.6401H158.436Z" fill="#B519FF"/>
<path d="M150.686 60.0901L150.646 54.4501H151.966V55.4901H152.016C152.229 55.1167 152.509 54.8267 152.856 54.6201C153.209 54.4134 153.626 54.3101 154.106 54.3101H154.166V55.5901H154.076C153.383 55.5901 152.856 55.7267 152.496 56.0001C152.143 56.2734 151.966 56.6467 151.966 57.1201V60.0901H150.686Z" fill="#B519FF"/>
<path d="M146.04 56.9V60.09H144.72V52.26H149.58V53.5H146.04V55.66H149.33V56.9H146.04Z" fill="#B519FF"/>
<path d="M86.6105 21.0991L134.045 55.3343L115.927 110.728H57.2942L39.1758 55.3343L86.6105 21.0991Z" fill="#F7F8FF"/>
<path fill-rule="evenodd" clip-rule="evenodd" d="M86.6105 21.9519L39.9901 55.5994L57.7956 110.036H115.425L133.231 55.5994L86.6105 21.9519ZM134.045 55.3343L86.6105 21.0991L39.1758 55.3343L57.2942 110.728H115.927L134.045 55.3343Z" fill="#D1D1D1"/>
<path d="M86.5 31.5L76.5 67L78.5 80.5L107 99L98.5 66.5L86.5 31.5Z" fill="url(#paint0_linear_3494_564)" fill-opacity="0.3"/>
<path fill-rule="evenodd" clip-rule="evenodd" d="M86.0876 70.0833L57.8217 110.048L57.5381 109.85L85.804 69.8854L86.0876 70.0833Z" fill="#BFBFBF"/>
<path fill-rule="evenodd" clip-rule="evenodd" d="M115.399 110.383L85.8061 70.0856L86.086 69.8827L115.679 110.18L115.399 110.383Z" fill="#BFBFBF"/>
<path fill-rule="evenodd" clip-rule="evenodd" d="M85.7734 70.3119L86.4385 21.427L86.7842 21.4317L86.1192 70.3167L85.7734 70.3119Z" fill="#BFBFBF"/>
<path fill-rule="evenodd" clip-rule="evenodd" d="M86.2255 70.4786L39.6747 55.615L39.7811 55.2861L86.332 70.1497L86.2255 70.4786Z" fill="#BFBFBF"/>
<path fill-rule="evenodd" clip-rule="evenodd" d="M86.2278 69.8188L133.776 55.2854L133.878 55.6157L86.3302 70.1491L86.2278 69.8188Z" fill="#BFBFBF"/>
<path d="M59.524 110.288C59.524 111.816 58.2774 113.054 56.7395 113.054C55.2017 113.054 53.9551 111.816 53.9551 110.288C53.9551 108.76 55.2017 107.522 56.7395 107.522C58.2774 107.522 59.524 108.76 59.524 110.288Z" fill="#7DD483"/>
<path d="M117.38 110.288C117.38 111.816 116.134 113.054 114.596 113.054C113.058 113.054 111.812 111.816 111.812 110.288C111.812 108.76 113.058 107.522 114.596 107.522C116.134 107.522 117.38 108.76 117.38 110.288Z" fill="#FCD495"/>
<path d="M41.5689 55.4574C41.5689 56.9851 40.3223 58.2235 38.7845 58.2235C37.2466 58.2235 36 56.9851 36 55.4574C36 53.9298 37.2466 52.6914 38.7845 52.6914C40.3223 52.6914 41.5689 53.9298 41.5689 55.4574Z" fill="#90B6FF"/>
<path d="M136 55.4574C136 56.9851 134.753 58.2235 133.215 58.2235C131.677 58.2235 130.431 56.9851 130.431 55.4574C130.431 53.9298 131.677 52.6914 133.215 52.6914C134.753 52.6914 136 53.9298 136 55.4574Z" fill="#D98BFF"/>
<path d="M88.7838 21.766C88.7838 23.2937 87.5371 24.532 85.9993 24.532C84.4615 24.532 83.2148 23.2937 83.2148 21.766C83.2148 20.2384 84.4615 19 85.9993 19C87.5371 19 88.7838 20.2384 88.7838 21.766Z" fill="#FF9EB0"/>
<path opacity="0.5" fill-rule="evenodd" clip-rule="evenodd" d="M75.041 66.2179L85.0432 32.2187L86.9619 32.7832L76.9597 66.7823L75.041 66.2179Z" fill="url(#paint1_linear_3494_564)"/>
<path opacity="0.5" fill-rule="evenodd" clip-rule="evenodd" d="M77.0113 81.652L75.0105 68.6512L76.9873 68.347L78.988 81.3478L77.0113 81.652Z" fill="url(#paint2_linear_3494_564)"/>
<path opacity="0.5" fill-rule="evenodd" clip-rule="evenodd" d="M106.462 100.343L77.4631 81.8432L78.5388 80.1571L107.538 98.657L106.462 100.343Z" fill="url(#paint3_linear_3494_564)"/>
<path opacity="0.5" fill-rule="evenodd" clip-rule="evenodd" d="M107.031 100.249L98.5323 67.2497L100.469 66.7509L108.968 99.7505L107.031 100.249Z" fill="url(#paint4_linear_3494_564)"/>
<path opacity="0.5" fill-rule="evenodd" clip-rule="evenodd" d="M98.0553 66.3285L86.0554 31.8284L87.9444 31.1714L99.9443 65.6715L98.0553 66.3285Z" fill="url(#paint5_linear_3494_564)"/>
<path d="M76.7658 67.0746C76.7658 67.4565 76.4562 67.7661 76.0743 67.7661C75.6924 67.7661 75.3828 67.4565 75.3828 67.0746C75.3828 66.6927 75.6924 66.3831 76.0743 66.3831C76.4562 66.3831 76.7658 66.6927 76.7658 67.0746Z" fill="white"/>
<path fill-rule="evenodd" clip-rule="evenodd" d="M76.0745 66.383C75.6926 66.383 75.383 66.6926 75.383 67.0745C75.383 67.4564 75.6926 67.766 76.0745 67.766C76.4564 67.766 76.766 67.4564 76.766 67.0745C76.766 66.6926 76.4564 66.383 76.0745 66.383ZM78.149 67.0745C78.149 68.2202 77.2202 69.149 76.0745 69.149C74.9288 69.149 74 68.2202 74 67.0745C74 65.9288 74.9288 65 76.0745 65C77.2202 65 78.149 65.9288 78.149 67.0745Z" fill="#90B6FF"/>
<path d="M85 30H88V32H85V30Z" fill="white"/>
<path fill-rule="evenodd" clip-rule="evenodd" d="M86.4798 30.383C86.0979 30.383 85.7883 30.6926 85.7883 31.0745C85.7883 31.4564 86.0979 31.766 86.4798 31.766C86.8617 31.766 87.1713 31.4564 87.1713 31.0745C87.1713 30.6926 86.8617 30.383 86.4798 30.383ZM88.5543 31.0745C88.5543 32.2202 87.6255 33.149 86.4798 33.149C85.3341 33.149 84.4053 32.2202 84.4053 31.0745C84.4053 29.9288 85.3341 29 86.4798 29C87.6255 29 88.5543 29.9288 88.5543 31.0745Z" fill="#FF9EB0"/>
<path d="M78.7658 81.0746C78.7658 81.4565 78.4562 81.7661 78.0743 81.7661C77.6924 81.7661 77.3828 81.4565 77.3828 81.0746C77.3828 80.6927 77.6924 80.3831 78.0743 80.3831C78.4562 80.3831 78.7658 80.6927 78.7658 81.0746Z" fill="white"/>
<path fill-rule="evenodd" clip-rule="evenodd" d="M78.0745 80.383C77.6926 80.383 77.383 80.6926 77.383 81.0745C77.383 81.4564 77.6926 81.766 78.0745 81.766C78.4564 81.766 78.766 81.4564 78.766 81.0745C78.766 80.6926 78.4564 80.383 78.0745 80.383ZM80.149 81.0745C80.149 82.2202 79.2202 83.149 78.0745 83.149C76.9288 83.149 76 82.2202 76 81.0745C76 79.9288 76.9288 79 78.0745 79C79.2202 79 80.149 79.9288 80.149 81.0745Z" fill="#7DD483"/>
<path d="M108.766 100.075C108.766 100.456 108.456 100.766 108.074 100.766C107.692 100.766 107.383 100.456 107.383 100.075C107.383 99.6927 107.692 99.3831 108.074 99.3831C108.456 99.3831 108.766 99.6927 108.766 100.075Z" fill="white"/>
<path fill-rule="evenodd" clip-rule="evenodd" d="M108.075 99.383C107.693 99.383 107.383 99.6926 107.383 100.075C107.383 100.456 107.693 100.766 108.075 100.766C108.456 100.766 108.766 100.456 108.766 100.075C108.766 99.6926 108.456 99.383 108.075 99.383ZM110.149 100.075C110.149 101.22 109.22 102.149 108.075 102.149C106.929 102.149 106 101.22 106 100.075C106 98.9288 106.929 98 108.075 98C109.22 98 110.149 98.9288 110.149 100.075Z" fill="#FCD495"/>
<path d="M99.7658 66.0746C99.7658 66.4565 99.4562 66.7661 99.0743 66.7661C98.6924 66.7661 98.3828 66.4565 98.3828 66.0746C98.3828 65.6927 98.6924 65.3831 99.0743 65.3831C99.4562 65.3831 99.7658 65.6927 99.7658 66.0746Z" fill="white"/>
<path fill-rule="evenodd" clip-rule="evenodd" d="M99.0745 65.383C98.6926 65.383 98.383 65.6926 98.383 66.0745C98.383 66.4564 98.6926 66.766 99.0745 66.766C99.4564 66.766 99.766 66.4564 99.766 66.0745C99.766 65.6926 99.4564 65.383 99.0745 65.383ZM101.149 66.0745C101.149 67.2202 100.22 68.149 99.0745 68.149C97.9288 68.149 97 67.2202 97 66.0745C97 64.9288 97.9288 64 99.0745 64C100.22 64 101.149 64.9288 101.149 66.0745Z" fill="#D98BFF"/>
<defs>
<linearGradient id="paint0_linear_3494_564" x1="55.6885" y1="69.5525" x2="114.542" y2="69.5525" gradientUnits="userSpaceOnUse">
<stop stop-color="#6FD2FA"/>
<stop offset="1" stop-color="#D175FC"/>
</linearGradient>
<linearGradient id="paint1_linear_3494_564" x1="74" y1="66.5" x2="86" y2="33.5" gradientUnits="userSpaceOnUse">
<stop stop-color="#256DFF"/>
<stop offset="1" stop-color="#FF3D62"/>
</linearGradient>
<linearGradient id="paint2_linear_3494_564" x1="78.2127" y1="69.2811" x2="74.2709" y2="80.121" gradientUnits="userSpaceOnUse">
<stop stop-color="#256DFF"/>
<stop offset="1" stop-color="#00AA07"/>
</linearGradient>
<linearGradient id="paint3_linear_3494_564" x1="78.501" y1="81.0014" x2="107.5" y2="99.4999" gradientUnits="userSpaceOnUse">
<stop stop-color="#00AA07"/>
<stop offset="1" stop-color="#FFAA2C"/>
</linearGradient>
<linearGradient id="paint4_linear_3494_564" x1="106.345" y1="69.4343" x2="96.9577" y2="95.2482" gradientUnits="userSpaceOnUse">
<stop stop-color="#B519FF"/>
<stop offset="1" stop-color="#FFAA2C"/>
</linearGradient>
<linearGradient id="paint5_linear_3494_564" x1="98.9993" y1="65" x2="87.499" y2="32.5003" gradientUnits="userSpaceOnUse">
<stop stop-color="#B519FF"/>
<stop offset="1" stop-color="#FF3D62"/>
</linearGradient>
</defs>
</svg>
