<svg width="169" height="132" viewBox="0 0 169 132" fill="none" xmlns="http://www.w3.org/2000/svg">
<path d="M86.6105 21.0991L134.045 55.3343L115.927 110.728H57.2942L39.1758 55.3343L86.6105 21.0991Z" fill="#F7F8FF"/>
<path fill-rule="evenodd" clip-rule="evenodd" d="M86.6105 21.9519L39.9901 55.5994L57.7956 110.036H115.425L133.231 55.5994L86.6105 21.9519ZM134.045 55.3343L86.6105 21.0991L39.1758 55.3343L57.2942 110.728H115.927L134.045 55.3343Z" fill="#D1D1D1"/>
<path d="M123 59L86 49.5L49 58.5L63.5 102L109.5 101.5L123 59Z" fill="url(#paint0_linear_3494_567)" fill-opacity="0.3"/>
<path fill-rule="evenodd" clip-rule="evenodd" d="M86.0876 70.0833L57.8217 110.048L57.5381 109.85L85.804 69.8854L86.0876 70.0833Z" fill="#BFBFBF"/>
<path fill-rule="evenodd" clip-rule="evenodd" d="M115.399 110.383L85.8061 70.0856L86.086 69.8827L115.679 110.18L115.399 110.383Z" fill="#BFBFBF"/>
<path fill-rule="evenodd" clip-rule="evenodd" d="M85.7734 70.3119L86.4385 21.427L86.7842 21.4317L86.1192 70.3167L85.7734 70.3119Z" fill="#BFBFBF"/>
<path fill-rule="evenodd" clip-rule="evenodd" d="M86.2255 70.4788L39.6747 55.6151L39.7811 55.2862L86.332 70.1498L86.2255 70.4788Z" fill="#BFBFBF"/>
<path fill-rule="evenodd" clip-rule="evenodd" d="M86.2278 69.8189L133.776 55.2856L133.878 55.6158L86.3302 70.1492L86.2278 69.8189Z" fill="#BFBFBF"/>
<path d="M59.524 110.288C59.524 111.816 58.2774 113.054 56.7395 113.054C55.2017 113.054 53.9551 111.816 53.9551 110.288C53.9551 108.76 55.2017 107.522 56.7395 107.522C58.2774 107.522 59.524 108.76 59.524 110.288Z" fill="#7DD483"/>
<path d="M117.38 110.288C117.38 111.816 116.134 113.054 114.596 113.054C113.058 113.054 111.812 111.816 111.812 110.288C111.812 108.76 113.058 107.522 114.596 107.522C116.134 107.522 117.38 108.76 117.38 110.288Z" fill="#FCD495"/>
<path d="M41.5689 55.4574C41.5689 56.9851 40.3223 58.2235 38.7845 58.2235C37.2466 58.2235 36 56.9851 36 55.4574C36 53.9298 37.2466 52.6914 38.7845 52.6914C40.3223 52.6914 41.5689 53.9298 41.5689 55.4574Z" fill="#90B6FF"/>
<path d="M136 55.4574C136 56.9851 134.753 58.2235 133.215 58.2235C131.677 58.2235 130.431 56.9851 130.431 55.4574C130.431 53.9298 131.677 52.6914 133.215 52.6914C134.753 52.6914 136 53.9298 136 55.4574Z" fill="#D98BFF"/>
<path d="M88.7838 21.766C88.7838 23.2937 87.5371 24.532 85.9993 24.532C84.4615 24.532 83.2148 23.2937 83.2148 21.766C83.2148 20.2384 84.4615 19 85.9993 19C87.5371 19 88.7838 20.2384 88.7838 21.766Z" fill="#FF9EB0"/>
<path d="M109.635 9.09001H108.025L106.235 6.68001L105.875 7.03001V9.09001H104.605V1.26001H105.875V5.43001L107.745 3.45001H109.495L107.115 5.81001L109.635 9.09001Z" fill="#FF3D62"/>
<path d="M101.459 9.23006C100.892 9.23006 100.402 9.10339 99.9889 8.85006C99.5822 8.59673 99.2855 8.25673 99.0989 7.83006L100.169 7.32006C100.289 7.58006 100.462 7.78339 100.689 7.93006C100.916 8.07673 101.172 8.15006 101.459 8.15006C101.746 8.15006 101.966 8.09673 102.119 7.99006C102.272 7.88339 102.349 7.74006 102.349 7.56006C102.349 7.38006 102.262 7.23339 102.089 7.12006C101.922 7.00006 101.652 6.90006 101.279 6.82006C100.612 6.66672 100.102 6.45339 99.7489 6.18006C99.4022 5.90006 99.2289 5.53339 99.2289 5.08006C99.2289 4.53339 99.4255 4.10339 99.8189 3.79006C100.212 3.47006 100.739 3.31006 101.399 3.31006C101.912 3.31006 102.362 3.43006 102.749 3.67006C103.142 3.91006 103.446 4.24006 103.659 4.66006L102.619 5.19006C102.472 4.93673 102.292 4.74006 102.079 4.60006C101.866 4.46006 101.642 4.39006 101.409 4.39006C101.136 4.39006 100.919 4.44672 100.759 4.56006C100.606 4.67339 100.529 4.82339 100.529 5.01006C100.529 5.17673 100.622 5.32006 100.809 5.44006C100.996 5.56006 101.299 5.67006 101.719 5.77006C103.012 6.05673 103.659 6.62006 103.659 7.46006C103.659 7.80673 103.566 8.11673 103.379 8.39006C103.192 8.65673 102.932 8.86339 102.599 9.01006C102.266 9.15673 101.886 9.23006 101.459 9.23006Z" fill="#FF3D62"/>
<path d="M98.186 1.68001C98.186 1.92668 98.1126 2.12001 97.966 2.26001C97.826 2.40001 97.6326 2.47001 97.386 2.47001C97.146 2.47001 96.956 2.40001 96.816 2.26001C96.6826 2.12001 96.616 1.92668 96.616 1.68001C96.616 1.44001 96.6826 1.25001 96.816 1.11001C96.956 0.963348 97.146 0.890015 97.386 0.890015C97.6326 0.890015 97.826 0.963348 97.966 1.11001C98.1126 1.25001 98.186 1.44001 98.186 1.68001ZM98.036 3.45002V9.09002H96.766V3.45002H98.036Z" fill="#FF3D62"/>
<path d="M95.8673 9.09001H94.3273L92.6673 6.09001H92.5973H91.3173V9.09001H89.9973V1.26001H92.4973C93.4506 1.26001 94.1906 1.47668 94.7173 1.91001C95.244 2.33668 95.5073 2.93001 95.5073 3.69001C95.5073 4.22334 95.374 4.68001 95.1073 5.06001C94.8473 5.43334 94.4706 5.70668 93.9773 5.88001L95.8673 9.09001ZM91.3173 4.87001H92.3373C92.9173 4.87001 93.364 4.77001 93.6773 4.57001C93.9906 4.36334 94.1473 4.07001 94.1473 3.69001C94.1473 3.30334 93.9906 3.00668 93.6773 2.80001C93.364 2.58668 92.9173 2.48001 92.3373 2.48001H91.3173V4.87001Z" fill="#FF3D62"/>
<path d="M85.6243 4.5H88.8843V5.7H85.6243V4.5Z" fill="#FF3D62"/>
<path d="M84.6215 1.68001C84.6215 1.92668 84.5482 2.12001 84.4015 2.26001C84.2615 2.40001 84.0682 2.47001 83.8215 2.47001C83.5815 2.47001 83.3915 2.40001 83.2515 2.26001C83.1182 2.12001 83.0515 1.92668 83.0515 1.68001C83.0515 1.44001 83.1182 1.25001 83.2515 1.11001C83.3915 0.963348 83.5815 0.890015 83.8215 0.890015C84.0682 0.890015 84.2615 0.963348 84.4015 1.11001C84.5482 1.25001 84.6215 1.44001 84.6215 1.68001ZM84.4715 3.45002V9.09002H83.2015V3.45002H84.4715Z" fill="#FF3D62"/>
<path d="M82.2391 4.65002H80.6991V7.26002C80.6991 7.50669 80.7657 7.70002 80.8991 7.84002C81.0391 7.97335 81.2357 8.04002 81.4891 8.04002C81.7024 8.04002 81.9124 8.00669 82.1191 7.94002V9.13002C81.8391 9.22335 81.5324 9.27002 81.1991 9.27002C80.6257 9.27002 80.1857 9.11002 79.8791 8.79002C79.5791 8.47002 79.4291 8.01335 79.4291 7.42002V4.65002H78.5491V3.45002H79.4291V1.77002H80.6991V3.45002H82.2391V4.65002Z" fill="#FF3D62"/>
<path d="M72.9253 9.09006V3.45006H74.1953V4.21006H74.2453C74.4186 3.93006 74.652 3.71006 74.9453 3.55006C75.2386 3.39006 75.5553 3.31006 75.8953 3.31006C76.4886 3.31006 76.9486 3.50006 77.2753 3.88006C77.6086 4.25339 77.7753 4.78006 77.7753 5.46006V9.09006H76.5053V5.71006C76.5053 5.35006 76.4053 5.06006 76.2053 4.84006C76.012 4.61339 75.7586 4.50006 75.4453 4.50006C75.072 4.50006 74.7686 4.62006 74.5353 4.86006C74.3086 5.10006 74.1953 5.42006 74.1953 5.82006V9.09006H72.9253Z" fill="#FF3D62"/>
<path d="M72.1801 9.09001H70.7801L70.0301 6.95001H67.2601L66.5101 9.09001H65.1101L67.9601 1.26001H69.3201L72.1801 9.09001ZM68.6101 3.06001L67.6901 5.71001H69.6001L68.6701 3.06001H68.6101Z" fill="#FF3D62"/>
<path d="M27.5516 55.65H26.0116V58.26C26.0116 58.5067 26.0782 58.7 26.2116 58.84C26.3516 58.9734 26.5482 59.04 26.8016 59.04C27.0149 59.04 27.2249 59.0067 27.4316 58.94V60.13C27.1516 60.2234 26.8449 60.27 26.5116 60.27C25.9382 60.27 25.4982 60.11 25.1916 59.79C24.8916 59.47 24.7416 59.0134 24.7416 58.42V55.65H23.8616V54.45H24.7416V52.77H26.0116V54.45H27.5516V55.65Z" fill="#256DFF"/>
<path d="M23.0688 52.68C23.0688 52.9267 22.9954 53.12 22.8488 53.26C22.7088 53.4 22.5154 53.47 22.2688 53.47C22.0288 53.47 21.8388 53.4 21.6988 53.26C21.5654 53.12 21.4988 52.9267 21.4988 52.68C21.4988 52.44 21.5654 52.25 21.6988 52.11C21.8388 51.9633 22.0288 51.89 22.2688 51.89C22.5154 51.89 22.7088 51.9633 22.8488 52.11C22.9954 52.25 23.0688 52.44 23.0688 52.68ZM22.9188 54.45V60.09H21.6488V54.45H22.9188Z" fill="#256DFF"/>
<path d="M20.0426 53.08C19.8093 53.08 19.6159 53.15 19.4626 53.29C19.3159 53.4233 19.2426 53.62 19.2426 53.88V54.45H20.6826V55.65H19.2426V60.09H17.9626V55.65H17.1526V54.45H17.9626V53.81C17.9626 53.2033 18.1193 52.7333 18.4326 52.4C18.7526 52.06 19.1959 51.89 19.7626 51.89C20.1426 51.89 20.4626 51.94 20.7226 52.04V53.24C20.4693 53.1333 20.2426 53.08 20.0426 53.08Z" fill="#256DFF"/>
<path d="M13.9093 60.2301C13.3693 60.2301 12.8993 60.1101 12.4993 59.8701C12.0993 59.6301 11.7926 59.2867 11.5793 58.8401C11.3659 58.3934 11.2593 57.8701 11.2593 57.2701C11.2593 56.6701 11.3659 56.1467 11.5793 55.7001C11.7926 55.2534 12.0993 54.9101 12.4993 54.6701C12.8993 54.4301 13.3693 54.3101 13.9093 54.3101C14.4493 54.3101 14.9193 54.4301 15.3193 54.6701C15.7193 54.9101 16.0259 55.2534 16.2393 55.7001C16.4593 56.1467 16.5693 56.6701 16.5693 57.2701C16.5693 57.8701 16.4593 58.3934 16.2393 58.8401C16.0259 59.2867 15.7193 59.6301 15.3193 59.8701C14.9193 60.1101 14.4493 60.2301 13.9093 60.2301ZM13.9093 59.0301C14.3293 59.0301 14.6593 58.8734 14.8993 58.5601C15.1459 58.2401 15.2693 57.8101 15.2693 57.2701C15.2693 56.7234 15.1459 56.2934 14.8993 55.9801C14.6593 55.6667 14.3293 55.5101 13.9093 55.5101C13.4959 55.5101 13.1659 55.6667 12.9193 55.9801C12.6793 56.2934 12.5593 56.7234 12.5593 57.2701C12.5593 57.8101 12.6793 58.2401 12.9193 58.5601C13.1659 58.8734 13.4959 59.0301 13.9093 59.0301Z" fill="#256DFF"/>
<path d="M7.37936 60.0901L7.33936 54.4501H8.65936V55.4901H8.70936C8.92269 55.1167 9.20269 54.8267 9.54936 54.6201C9.90269 54.4134 10.3194 54.3101 10.7994 54.3101H10.8594V55.5901H10.7694C10.076 55.5901 9.54936 55.7267 9.18936 56.0001C8.83602 56.2734 8.65936 56.6467 8.65936 57.1201V60.0901H7.37936Z" fill="#256DFF"/>
<path d="M3.31997 52.26C4.26664 52.26 5.0033 52.4867 5.52997 52.94C6.05664 53.3867 6.31997 54.01 6.31997 54.81C6.31997 55.61 6.0633 56.2333 5.54997 56.68C5.03664 57.1267 4.3233 57.35 3.40997 57.35H2.03997V60.09H0.719971V52.26H3.31997ZM3.14997 56.14C3.7233 56.14 4.16997 56.0233 4.48997 55.79C4.80997 55.5567 4.96997 55.23 4.96997 54.81C4.96997 54.39 4.80997 54.0633 4.48997 53.83C4.16997 53.5967 3.7233 53.48 3.14997 53.48H2.03997V56.14H3.14997Z" fill="#256DFF"/>
<path d="M130.148 129.09V121.26H131.418V124.21H131.468C131.641 123.93 131.875 123.71 132.168 123.55C132.461 123.39 132.778 123.31 133.118 123.31C133.711 123.31 134.171 123.5 134.498 123.88C134.831 124.253 134.998 124.78 134.998 125.46V129.09H133.728V125.71C133.728 125.35 133.628 125.06 133.428 124.84C133.235 124.613 132.981 124.5 132.668 124.5C132.295 124.5 131.991 124.62 131.758 124.86C131.531 125.1 131.418 125.42 131.418 125.82V129.09H130.148Z" fill="#FFAB2C"/>
<path d="M129.296 124.65H127.756V127.26C127.756 127.507 127.822 127.7 127.956 127.84C128.096 127.973 128.292 128.04 128.546 128.04C128.759 128.04 128.969 128.007 129.176 127.94V129.13C128.896 129.223 128.589 129.27 128.256 129.27C127.682 129.27 127.242 129.11 126.936 128.79C126.636 128.47 126.486 128.013 126.486 127.42V124.65H125.606V123.45H126.486V121.77H127.756V123.45H129.296V124.65Z" fill="#FFAB2C"/>
<path d="M118.594 129.09L116.784 123.45H118.164L119.264 127.48H119.314L120.414 123.45H121.744L122.854 127.48H122.904L123.994 123.45H125.374L123.574 129.09H122.234L121.104 125.08H121.054L119.924 129.09H118.594Z" fill="#FFAB2C"/>
<path d="M113.788 129.23C113.248 129.23 112.778 129.11 112.378 128.87C111.978 128.63 111.672 128.287 111.458 127.84C111.245 127.393 111.138 126.87 111.138 126.27C111.138 125.67 111.245 125.147 111.458 124.7C111.672 124.253 111.978 123.91 112.378 123.67C112.778 123.43 113.248 123.31 113.788 123.31C114.328 123.31 114.798 123.43 115.198 123.67C115.598 123.91 115.905 124.253 116.118 124.7C116.338 125.147 116.448 125.67 116.448 126.27C116.448 126.87 116.338 127.393 116.118 127.84C115.905 128.287 115.598 128.63 115.198 128.87C114.798 129.11 114.328 129.23 113.788 129.23ZM113.788 128.03C114.208 128.03 114.538 127.873 114.778 127.56C115.025 127.24 115.148 126.81 115.148 126.27C115.148 125.723 115.025 125.293 114.778 124.98C114.538 124.667 114.208 124.51 113.788 124.51C113.375 124.51 113.045 124.667 112.798 124.98C112.558 125.293 112.438 125.723 112.438 126.27C112.438 126.81 112.558 127.24 112.798 127.56C113.045 127.873 113.375 128.03 113.788 128.03Z" fill="#FFAB2C"/>
<path d="M107.258 129.09L107.218 123.45H108.538V124.49H108.588C108.802 124.117 109.082 123.827 109.428 123.62C109.782 123.413 110.198 123.31 110.678 123.31H110.738V124.59H110.648C109.955 124.59 109.428 124.727 109.068 125C108.715 125.273 108.538 125.647 108.538 126.12V129.09H107.258Z" fill="#FFAB2C"/>
<path d="M103.09 122.36C102.637 122.36 102.24 122.473 101.9 122.7C101.567 122.927 101.31 123.253 101.13 123.68C100.95 124.107 100.86 124.607 100.86 125.18C100.86 126.06 101.053 126.75 101.44 127.25C101.827 127.743 102.357 127.99 103.03 127.99C103.363 127.99 103.66 127.927 103.92 127.8C104.187 127.673 104.43 127.487 104.65 127.24V125.97H102.91V124.75H105.93V127.73C105.55 128.223 105.117 128.597 104.63 128.85C104.143 129.103 103.61 129.23 103.03 129.23C102.317 129.23 101.693 129.067 101.16 128.74C100.633 128.407 100.223 127.937 99.93 127.33C99.6433 126.717 99.5 126 99.5 125.18C99.5 124.36 99.6467 123.647 99.94 123.04C100.233 122.427 100.65 121.953 101.19 121.62C101.737 121.287 102.37 121.12 103.09 121.12C103.703 121.12 104.247 121.26 104.72 121.54C105.2 121.813 105.583 122.197 105.87 122.69L104.83 123.43C104.637 123.103 104.38 122.843 104.06 122.65C103.747 122.457 103.423 122.36 103.09 122.36Z" fill="#FFAB2C"/>
<path d="M75.3675 129.09L73.1575 123.45H74.5775L76.0575 127.55H76.1175L77.5175 123.45H78.9375L75.7775 131.54H74.3975L75.3675 129.09Z" fill="#00AA07"/>
<path d="M72.9051 124.65H71.3651V127.26C71.3651 127.507 71.4318 127.7 71.5651 127.84C71.7051 127.973 71.9018 128.04 72.1551 128.04C72.3684 128.04 72.5784 128.007 72.7851 127.94V129.13C72.5051 129.223 72.1984 129.27 71.8651 129.27C71.2918 129.27 70.8518 129.11 70.5451 128.79C70.2451 128.47 70.0951 128.013 70.0951 127.42V124.65H69.2151V123.45H70.0951V121.77H71.3651V123.45H72.9051V124.65Z" fill="#00AA07"/>
<path d="M68.4223 121.68C68.4223 121.927 68.349 122.12 68.2023 122.26C68.0623 122.4 67.869 122.47 67.6223 122.47C67.3823 122.47 67.1923 122.4 67.0523 122.26C66.919 122.12 66.8523 121.927 66.8523 121.68C66.8523 121.44 66.919 121.25 67.0523 121.11C67.1923 120.963 67.3823 120.89 67.6223 120.89C67.869 120.89 68.0623 120.963 68.2023 121.11C68.349 121.25 68.4223 121.44 68.4223 121.68ZM68.2723 123.45V129.09H67.0023V123.45H68.2723Z" fill="#00AA07"/>
<path d="M64.1096 126.23L66.1496 129.09H64.6196L63.3796 127.18L62.1396 129.09H60.6096L62.6896 126.17L60.7596 123.45H62.2596L63.4396 125.25L64.5596 123.45H66.0496L64.1096 126.23Z" fill="#00AA07"/>
<path d="M60.2496 125.83C60.2496 126.163 60.2163 126.46 60.1496 126.72H56.3996C56.4529 127.167 56.6029 127.517 56.8496 127.77C57.0963 128.017 57.4263 128.14 57.8396 128.14C58.0996 128.14 58.3363 128.073 58.5496 127.94C58.7696 127.8 58.9496 127.603 59.0896 127.35L60.1196 127.88C59.9063 128.307 59.6063 128.64 59.2196 128.88C58.8329 129.113 58.3729 129.23 57.8396 129.23C57.2796 129.23 56.7896 129.113 56.3696 128.88C55.9563 128.64 55.6363 128.3 55.4096 127.86C55.1896 127.413 55.0796 126.893 55.0796 126.3C55.0796 125.693 55.1863 125.167 55.3996 124.72C55.6196 124.267 55.9296 123.92 56.3296 123.68C56.7296 123.433 57.1996 123.31 57.7396 123.31C58.2463 123.31 58.6896 123.413 59.0696 123.62C59.4496 123.827 59.7396 124.12 59.9396 124.5C60.1463 124.88 60.2496 125.323 60.2496 125.83ZM58.9496 125.64C58.9496 125.26 58.8396 124.957 58.6196 124.73C58.3996 124.503 58.1063 124.39 57.7396 124.39C57.3929 124.39 57.1096 124.5 56.8896 124.72C56.6696 124.933 56.5196 125.24 56.4396 125.64H58.9496Z" fill="#00AA07"/>
<path d="M52.5562 121.26H53.8262V127.56C53.8262 127.813 53.9528 127.94 54.2062 127.94H54.4862V129.14H53.8462C53.4262 129.14 53.1062 129.04 52.8862 128.84C52.6662 128.633 52.5562 128.337 52.5562 127.95V121.26Z" fill="#00AA07"/>
<path d="M46.2573 131.53V123.45H47.5273V124.18H47.5873C47.774 123.907 48.0073 123.693 48.2873 123.54C48.574 123.387 48.8807 123.31 49.2073 123.31C49.6607 123.31 50.0607 123.43 50.4073 123.67C50.7607 123.91 51.034 124.25 51.2273 124.69C51.4207 125.123 51.5173 125.623 51.5173 126.19C51.5173 126.79 51.4207 127.32 51.2273 127.78C51.034 128.24 50.7607 128.597 50.4073 128.85C50.054 129.103 49.6507 129.23 49.1973 129.23C48.8573 129.23 48.5473 129.153 48.2673 129C47.994 128.853 47.7673 128.64 47.5873 128.36H47.5273V131.53H46.2573ZM47.4873 126.27C47.4873 126.797 47.6107 127.22 47.8573 127.54C48.104 127.86 48.424 128.02 48.8173 128.02C49.2307 128.02 49.5673 127.86 49.8273 127.54C50.0873 127.22 50.2173 126.797 50.2173 126.27C50.2173 125.75 50.0907 125.33 49.8373 125.01C49.584 124.683 49.2573 124.52 48.8573 124.52C48.4507 124.52 48.1207 124.683 47.8673 125.01C47.614 125.33 47.4873 125.75 47.4873 126.27Z" fill="#00AA07"/>
<path d="M37.0776 129.09V123.45H38.3476V124.2H38.4076C38.5743 123.92 38.791 123.703 39.0576 123.55C39.3243 123.39 39.6176 123.31 39.9376 123.31C40.2776 123.31 40.571 123.397 40.8176 123.57C41.071 123.737 41.2643 123.983 41.3976 124.31H41.4476C41.861 123.643 42.4576 123.31 43.2376 123.31C43.7976 123.31 44.2343 123.497 44.5476 123.87C44.861 124.243 45.0176 124.767 45.0176 125.44V129.09H43.7376V125.7C43.7376 125.327 43.6543 125.033 43.4876 124.82C43.321 124.6 43.0943 124.49 42.8076 124.49C42.461 124.49 42.1876 124.607 41.9876 124.84C41.7876 125.073 41.6876 125.393 41.6876 125.8V129.09H40.4076V125.7C40.4076 125.327 40.3243 125.033 40.1576 124.82C39.991 124.6 39.7643 124.49 39.4776 124.49C39.131 124.49 38.8543 124.607 38.6476 124.84C38.4476 125.073 38.3476 125.393 38.3476 125.8V129.09H37.0776Z" fill="#00AA07"/>
<path d="M33.3644 129.23C32.8244 129.23 32.3544 129.11 31.9544 128.87C31.5544 128.63 31.2477 128.287 31.0344 127.84C30.821 127.393 30.7144 126.87 30.7144 126.27C30.7144 125.67 30.821 125.147 31.0344 124.7C31.2477 124.253 31.5544 123.91 31.9544 123.67C32.3544 123.43 32.8244 123.31 33.3644 123.31C33.9044 123.31 34.3744 123.43 34.7744 123.67C35.1744 123.91 35.481 124.253 35.6944 124.7C35.9144 125.147 36.0244 125.67 36.0244 126.27C36.0244 126.87 35.9144 127.393 35.6944 127.84C35.481 128.287 35.1744 128.63 34.7744 128.87C34.3744 129.11 33.9044 129.23 33.3644 129.23ZM33.3644 128.03C33.7844 128.03 34.1144 127.873 34.3544 127.56C34.601 127.24 34.7244 126.81 34.7244 126.27C34.7244 125.723 34.601 125.293 34.3544 124.98C34.1144 124.667 33.7844 124.51 33.3644 124.51C32.951 124.51 32.621 124.667 32.3744 124.98C32.1344 125.293 32.0144 125.723 32.0144 126.27C32.0144 126.81 32.1344 127.24 32.3744 127.56C32.621 127.873 32.951 128.03 33.3644 128.03Z" fill="#00AA07"/>
<path d="M29.91 127.59C29.63 128.11 29.2433 128.513 28.75 128.8C28.2633 129.087 27.71 129.23 27.09 129.23C26.39 129.23 25.7667 129.06 25.22 128.72C24.68 128.373 24.2567 127.89 23.95 127.27C23.65 126.65 23.5 125.94 23.5 125.14C23.5 124.353 23.65 123.657 23.95 123.05C24.2567 122.437 24.6833 121.963 25.23 121.63C25.7833 121.29 26.42 121.12 27.14 121.12C27.76 121.12 28.3067 121.267 28.78 121.56C29.2533 121.853 29.6267 122.253 29.9 122.76L28.77 123.35C28.5967 123.037 28.3567 122.793 28.05 122.62C27.75 122.447 27.4267 122.36 27.08 122.36C26.6467 122.36 26.26 122.477 25.92 122.71C25.5867 122.943 25.3267 123.27 25.14 123.69C24.96 124.11 24.87 124.593 24.87 125.14C24.87 125.693 24.96 126.187 25.14 126.62C25.3267 127.053 25.5867 127.39 25.92 127.63C26.26 127.87 26.6467 127.99 27.08 127.99C27.42 127.99 27.7367 127.903 28.03 127.73C28.33 127.55 28.58 127.303 28.78 126.99L29.91 127.59Z" fill="#00AA07"/>
<path d="M167.091 60.09V58.61H168.571V60.09H167.091Z" fill="#B519FF"/>
<path d="M165.793 62.5401H164.513V59.3601H164.453C164.286 59.6401 164.069 59.8534 163.803 60.0001C163.536 60.1534 163.239 60.2301 162.913 60.2301C162.446 60.2301 162.033 60.1067 161.673 59.8601C161.313 59.6067 161.033 59.2534 160.833 58.8001C160.633 58.3401 160.533 57.8134 160.533 57.2201C160.533 56.6467 160.629 56.1401 160.823 55.7001C161.023 55.2601 161.299 54.9201 161.653 54.6801C162.006 54.4334 162.413 54.3101 162.873 54.3101C163.199 54.3101 163.499 54.3867 163.773 54.5401C164.046 54.6934 164.273 54.9101 164.453 55.1901H164.513V54.4501H165.793V62.5401ZM164.553 57.2801C164.553 56.7534 164.426 56.3301 164.173 56.0101C163.926 55.6901 163.599 55.5301 163.193 55.5301C162.793 55.5301 162.466 55.6934 162.213 56.0201C161.959 56.3401 161.833 56.7601 161.833 57.2801C161.833 57.8001 161.963 58.2201 162.223 58.5401C162.483 58.8601 162.819 59.0201 163.233 59.0201C163.626 59.0201 163.943 58.8601 164.183 58.5401C164.429 58.2201 164.553 57.8001 164.553 57.2801Z" fill="#B519FF"/>
<path d="M159.736 56.8301C159.736 57.1634 159.703 57.4601 159.636 57.7201H155.886C155.939 58.1667 156.089 58.5167 156.336 58.7701C156.583 59.0167 156.913 59.1401 157.326 59.1401C157.586 59.1401 157.823 59.0734 158.036 58.9401C158.256 58.8001 158.436 58.6034 158.576 58.3501L159.606 58.8801C159.393 59.3067 159.093 59.6401 158.706 59.8801C158.319 60.1134 157.859 60.2301 157.326 60.2301C156.766 60.2301 156.276 60.1134 155.856 59.8801C155.443 59.6401 155.123 59.3001 154.896 58.8601C154.676 58.4134 154.566 57.8934 154.566 57.3001C154.566 56.6934 154.673 56.1667 154.886 55.7201C155.106 55.2667 155.416 54.9201 155.816 54.6801C156.216 54.4334 156.686 54.3101 157.226 54.3101C157.733 54.3101 158.176 54.4134 158.556 54.6201C158.936 54.8267 159.226 55.1201 159.426 55.5001C159.633 55.8801 159.736 56.3234 159.736 56.8301ZM158.436 56.6401C158.436 56.2601 158.326 55.9567 158.106 55.7301C157.886 55.5034 157.593 55.3901 157.226 55.3901C156.879 55.3901 156.596 55.5001 156.376 55.7201C156.156 55.9334 156.006 56.2401 155.926 56.6401H158.436Z" fill="#B519FF"/>
<path d="M150.686 60.0901L150.646 54.4501H151.966V55.4901H152.016C152.229 55.1167 152.509 54.8267 152.856 54.6201C153.209 54.4134 153.626 54.3101 154.106 54.3101H154.166V55.5901H154.076C153.383 55.5901 152.856 55.7267 152.496 56.0001C152.143 56.2734 151.966 56.6467 151.966 57.1201V60.0901H150.686Z" fill="#B519FF"/>
<path d="M146.04 56.9V60.09H144.72V52.26H149.58V53.5H146.04V55.66H149.33V56.9H146.04Z" fill="#B519FF"/>
<path opacity="0.5" fill-rule="evenodd" clip-rule="evenodd" d="M109.5 103L64.5 103L64.5 101L109.5 101V103Z" fill="url(#paint1_linear_3494_567)"/>
<path opacity="0.5" fill-rule="evenodd" clip-rule="evenodd" d="M48.2606 57.0291L84.7606 48.0291L85.2394 49.9709L48.7394 58.9709L48.2606 57.0291Z" fill="url(#paint2_linear_3494_567)"/>
<path opacity="0.5" fill-rule="evenodd" clip-rule="evenodd" d="M62.0559 101.829L47.0577 58.8293L48.9461 58.1707L63.9443 101.171L62.0559 101.829Z" fill="url(#paint3_linear_3494_567)"/>
<path opacity="0.5" fill-rule="evenodd" clip-rule="evenodd" d="M122.754 58.9693L87.2544 49.9694L87.7459 48.0307L123.246 57.0307L122.754 58.9693Z" fill="url(#paint4_linear_3494_567)"/>
<path opacity="0.5" fill-rule="evenodd" clip-rule="evenodd" d="M109.048 101.19L123.049 58.1905L124.951 58.8097L110.95 101.81L109.048 101.19Z" fill="url(#paint5_linear_3494_567)"/>
<path d="M63.7658 102.075C63.7658 102.456 63.4562 102.766 63.0743 102.766C62.6924 102.766 62.3828 102.456 62.3828 102.075C62.3828 101.693 62.6924 101.383 63.0743 101.383C63.4562 101.383 63.7658 101.693 63.7658 102.075Z" fill="white"/>
<path fill-rule="evenodd" clip-rule="evenodd" d="M63.0745 101.383C62.6926 101.383 62.383 101.693 62.383 102.075C62.383 102.456 62.6926 102.766 63.0745 102.766C63.4564 102.766 63.766 102.456 63.766 102.075C63.766 101.693 63.4564 101.383 63.0745 101.383ZM65.149 102.075C65.149 103.22 64.2202 104.149 63.0745 104.149C61.9288 104.149 61 103.22 61 102.075C61 100.929 61.9288 100 63.0745 100C64.2202 100 65.149 100.929 65.149 102.075Z" fill="#7DD483"/>
<path d="M48.7658 58.0746C48.7658 58.4565 48.4562 58.7661 48.0743 58.7661C47.6924 58.7661 47.3828 58.4565 47.3828 58.0746C47.3828 57.6927 47.6924 57.3831 48.0743 57.3831C48.4562 57.3831 48.7658 57.6927 48.7658 58.0746Z" fill="white"/>
<path fill-rule="evenodd" clip-rule="evenodd" d="M48.0745 57.383C47.6926 57.383 47.383 57.6926 47.383 58.0745C47.383 58.4564 47.6926 58.766 48.0745 58.766C48.4564 58.766 48.766 58.4564 48.766 58.0745C48.766 57.6926 48.4564 57.383 48.0745 57.383ZM50.149 58.0745C50.149 59.2202 49.2202 60.149 48.0745 60.149C46.9288 60.149 46 59.2202 46 58.0745C46 56.9288 46.9288 56 48.0745 56C49.2202 56 50.149 56.9288 50.149 58.0745Z" fill="#90B6FF"/>
<path d="M110.766 102.075C110.766 102.456 110.456 102.766 110.074 102.766C109.692 102.766 109.383 102.456 109.383 102.075C109.383 101.693 109.692 101.383 110.074 101.383C110.456 101.383 110.766 101.693 110.766 102.075Z" fill="white"/>
<path fill-rule="evenodd" clip-rule="evenodd" d="M110.075 101.383C109.693 101.383 109.383 101.693 109.383 102.075C109.383 102.456 109.693 102.766 110.075 102.766C110.456 102.766 110.766 102.456 110.766 102.075C110.766 101.693 110.456 101.383 110.075 101.383ZM112.149 102.075C112.149 103.22 111.22 104.149 110.075 104.149C108.929 104.149 108 103.22 108 102.075C108 100.929 108.929 100 110.075 100C111.22 100 112.149 100.929 112.149 102.075Z" fill="#FCD495"/>
<path d="M124.766 58.0746C124.766 58.4565 124.456 58.7661 124.074 58.7661C123.692 58.7661 123.383 58.4565 123.383 58.0746C123.383 57.6927 123.692 57.3831 124.074 57.3831C124.456 57.3831 124.766 57.6927 124.766 58.0746Z" fill="white"/>
<path fill-rule="evenodd" clip-rule="evenodd" d="M124.075 57.383C123.693 57.383 123.383 57.6926 123.383 58.0745C123.383 58.4564 123.693 58.766 124.075 58.766C124.456 58.766 124.766 58.4564 124.766 58.0745C124.766 57.6926 124.456 57.383 124.075 57.383ZM126.149 58.0745C126.149 59.2202 125.22 60.149 124.075 60.149C122.929 60.149 122 59.2202 122 58.0745C122 56.9288 122.929 56 124.075 56C125.22 56 126.149 56.9288 126.149 58.0745Z" fill="#D98BFF"/>
<path d="M87.1711 49.0746C87.1711 49.4565 86.8615 49.7661 86.4796 49.7661C86.0977 49.7661 85.7881 49.4565 85.7881 49.0746C85.7881 48.6927 86.0977 48.3831 86.4796 48.3831C86.8615 48.3831 87.1711 48.6927 87.1711 49.0746Z" fill="white"/>
<path fill-rule="evenodd" clip-rule="evenodd" d="M86.4798 48.383C86.0979 48.383 85.7883 48.6926 85.7883 49.0745C85.7883 49.4564 86.0979 49.766 86.4798 49.766C86.8617 49.766 87.1713 49.4564 87.1713 49.0745C87.1713 48.6926 86.8617 48.383 86.4798 48.383ZM88.5543 49.0745C88.5543 50.2202 87.6255 51.149 86.4798 51.149C85.3341 51.149 84.4053 50.2202 84.4053 49.0745C84.4053 47.9288 85.3341 47 86.4798 47C87.6255 47 88.5543 47.9288 88.5543 49.0745Z" fill="#FF9EB0"/>
<defs>
<linearGradient id="paint0_linear_3494_567" x1="61" y1="69.5526" x2="119.853" y2="69.5526" gradientUnits="userSpaceOnUse">
<stop stop-color="#6FD2FA"/>
<stop offset="1" stop-color="#D175FC"/>
</linearGradient>
<linearGradient id="paint1_linear_3494_567" x1="62.9709" y1="92.0008" x2="87.4709" y2="83.5005" gradientUnits="userSpaceOnUse">
<stop stop-color="#00AA07"/>
<stop offset="1" stop-color="#FFAA2C"/>
</linearGradient>
<linearGradient id="paint2_linear_3494_567" x1="56.5556" y1="67.999" x2="68.5556" y2="34.999" gradientUnits="userSpaceOnUse">
<stop stop-color="#256DFF"/>
<stop offset="1" stop-color="#FF3D62"/>
</linearGradient>
<linearGradient id="paint3_linear_3494_567" x1="65.627" y1="71.7821" x2="61.6852" y2="82.622" gradientUnits="userSpaceOnUse">
<stop stop-color="#256DFF"/>
<stop offset="1" stop-color="#00AA07"/>
</linearGradient>
<linearGradient id="paint4_linear_3494_567" x1="112.465" y1="72.0016" x2="100.965" y2="39.502" gradientUnits="userSpaceOnUse">
<stop stop-color="#B519FF"/>
<stop offset="1" stop-color="#FF3D62"/>
</linearGradient>
<linearGradient id="paint5_linear_3494_567" x1="109.971" y1="61.0006" x2="88.4715" y2="82.0009" gradientUnits="userSpaceOnUse">
<stop stop-color="#B519FF"/>
<stop offset="1" stop-color="#FFAA2C"/>
</linearGradient>
</defs>
</svg>
