<svg width="169" height="132" xmlns="http://www.w3.org/2000/svg" fill="none">

 <g>
  <title>Layer 1</title>
  <path id="svg_2" fill="#D1D1D1" d="m86.6105,21.9519l-46.6204,33.6475l17.8055,54.4366l57.6294,0l17.806,-54.4366l-46.6205,-33.6475zm47.4345,33.3824l-47.4345,-34.2352l-47.4347,34.2352l18.1184,55.3937l58.6328,0l18.118,-55.3937z" clip-rule="evenodd" fill-rule="evenodd"/>
  <path id="svg_4" fill="#BFBFBF" d="m86.0876,70.0833l-28.2659,39.9647l-0.2836,-0.198l28.2659,-39.9646l0.2836,0.1979z" clip-rule="evenodd" fill-rule="evenodd"/>
  <path id="svg_5" fill="#BFBFBF" d="m115.399,110.383l-29.5929,-40.2974l0.2799,-0.2029l29.593,40.2973l-0.28,0.203z" clip-rule="evenodd" fill-rule="evenodd"/>
  <path id="svg_6" fill="#BFBFBF" d="m85.7734,70.3119l0.6651,-48.8849l0.3457,0.0047l-0.665,48.885l-0.3458,-0.0048z" clip-rule="evenodd" fill-rule="evenodd"/>
  <path id="svg_7" fill="#BFBFBF" d="m86.2255,70.4788l-46.5508,-14.8637l0.1064,-0.3289l46.5509,14.8636l-0.1065,0.329z" clip-rule="evenodd" fill-rule="evenodd"/>
  <path id="svg_8" fill="#BFBFBF" d="m86.2278,69.8189l47.5482,-14.5333l0.102,0.3302l-47.5478,14.5334l-0.1024,-0.3303z" clip-rule="evenodd" fill-rule="evenodd"/>
  <path id="svg_9" fill="#7DD483" d="m59.524,110.288c0,1.528 -1.2466,2.766 -2.7845,2.766c-1.5378,0 -2.7844,-1.238 -2.7844,-2.766c0,-1.528 1.2466,-2.766 2.7844,-2.766c1.5379,0 2.7845,1.238 2.7845,2.766z"/>
  <path id="svg_10" fill="#FCD495" d="m117.38,110.288c0,1.528 -1.246,2.766 -2.784,2.766c-1.538,0 -2.784,-1.238 -2.784,-2.766c0,-1.528 1.246,-2.766 2.784,-2.766c1.538,0 2.784,1.238 2.784,2.766z"/>
  <path id="svg_11" fill="#90B6FF" d="m41.5689,55.4574c0,1.5277 -1.2466,2.7661 -2.7844,2.7661c-1.5379,0 -2.7845,-1.2384 -2.7845,-2.7661c0,-1.5276 1.2466,-2.766 2.7845,-2.766c1.5378,0 2.7844,1.2384 2.7844,2.766z"/>
  <path id="svg_12" fill="#D98BFF" d="m136,55.4574c0,1.5277 -1.247,2.7661 -2.785,2.7661c-1.538,0 -2.784,-1.2384 -2.784,-2.7661c0,-1.5276 1.246,-2.766 2.784,-2.766c1.538,0 2.785,1.2384 2.785,2.766z"/>
  <path id="svg_13" fill="#FF9EB0" d="m88.7838,21.766c0,1.5277 -1.2467,2.766 -2.7845,2.766c-1.5378,0 -2.7845,-1.2383 -2.7845,-2.766c0,-1.5276 1.2467,-2.766 2.7845,-2.766c1.5378,0 2.7845,1.2384 2.7845,2.766z"/>
  <path id="svg_14" fill="#FF3D62" d="m109.635,9.09001l-1.61,0l-1.79,-2.41l-0.36,0.35l0,2.06l-1.27,0l0,-7.83l1.27,0l0,4.17l1.87,-1.98l1.75,0l-2.38,2.36l2.52,3.28z"/>
  <path id="svg_15" fill="#FF3D62" d="m101.459,9.23006c-0.567,0 -1.057,-0.12667 -1.4701,-0.38c-0.4067,-0.25333 -0.7034,-0.59333 -0.89,-1.02l1.0701,-0.51c0.12,0.26 0.293,0.46333 0.52,0.61c0.227,0.14667 0.483,0.22 0.77,0.22c0.287,0 0.507,-0.05333 0.66,-0.16c0.153,-0.10667 0.23,-0.25 0.23,-0.43c0,-0.18 -0.087,-0.32667 -0.26,-0.44c-0.167,-0.12 -0.437,-0.22 -0.81,-0.3c-0.667,-0.15334 -1.177,-0.36667 -1.5301,-0.64c-0.3467,-0.28 -0.52,-0.64667 -0.52,-1.1c0,-0.54667 0.1966,-0.97667 0.59,-1.29c0.3931,-0.32 0.9201,-0.48 1.5801,-0.48c0.513,0 0.963,0.12 1.35,0.36c0.393,0.24 0.697,0.57 0.91,0.99l-1.04,0.53c-0.147,-0.25333 -0.327,-0.45 -0.54,-0.59c-0.213,-0.14 -0.437,-0.21 -0.67,-0.21c-0.273,0 -0.49,0.05666 -0.65,0.17c-0.153,0.11333 -0.23,0.26333 -0.23,0.45c0,0.16667 0.093,0.31 0.28,0.43c0.187,0.12 0.49,0.23 0.91,0.33c1.293,0.28667 1.94,0.85 1.94,1.69c0,0.34667 -0.093,0.65667 -0.28,0.93c-0.187,0.26667 -0.447,0.47333 -0.78,0.62c-0.333,0.14667 -0.713,0.22 -1.14,0.22z"/>
  <path id="svg_16" fill="#FF3D62" d="m98.186,1.68001c0,0.24667 -0.0734,0.44 -0.22,0.58c-0.14,0.14 -0.3334,0.21 -0.58,0.21c-0.24,0 -0.43,-0.07 -0.57,-0.21c-0.1334,-0.14 -0.2,-0.33333 -0.2,-0.58c0,-0.24 0.0666,-0.43 0.2,-0.57c0.14,-0.14666 0.33,-0.21999 0.57,-0.21999c0.2466,0 0.44,0.07333 0.58,0.21999c0.1466,0.14 0.22,0.33 0.22,0.57zm-0.15,1.77001l0,5.64l-1.27,0l0,-5.64l1.27,0z"/>
  <path id="svg_17" fill="#FF3D62" d="m95.8673,9.09001l-1.54,0l-1.66,-3l-0.07,0l-1.28,0l0,3l-1.32,0l0,-7.83l2.5,0c0.9533,0 1.6933,0.21667 2.22,0.65c0.5267,0.42667 0.79,1.02 0.79,1.78c0,0.53333 -0.1333,0.99 -0.4,1.37c-0.26,0.37333 -0.6367,0.64667 -1.13,0.82l1.89,3.21zm-4.55,-4.22l1.02,0c0.58,0 1.0267,-0.1 1.34,-0.3c0.3133,-0.20667 0.47,-0.5 0.47,-0.88c0,-0.38667 -0.1567,-0.68333 -0.47,-0.89c-0.3133,-0.21333 -0.76,-0.32 -1.34,-0.32l-1.02,0l0,2.39z"/>
  <path id="svg_18" fill="#FF3D62" d="m85.6243,4.5l3.26,0l0,1.2l-3.26,0l0,-1.2z"/>
  <path id="svg_19" fill="#FF3D62" d="m84.6215,1.68001c0,0.24667 -0.0733,0.44 -0.22,0.58c-0.14,0.14 -0.3333,0.21 -0.58,0.21c-0.24,0 -0.43,-0.07 -0.57,-0.21c-0.1333,-0.14 -0.2,-0.33333 -0.2,-0.58c0,-0.24 0.0667,-0.43 0.2,-0.57c0.14,-0.14666 0.33,-0.21999 0.57,-0.21999c0.2467,0 0.44,0.07333 0.58,0.21999c0.1467,0.14 0.22,0.33 0.22,0.57zm-0.15,1.77001l0,5.64l-1.27,0l0,-5.64l1.27,0z"/>
  <path id="svg_20" fill="#FF3D62" d="m82.2391,4.65002l-1.54,0l0,2.61c0,0.24667 0.0666,0.44 0.2,0.58c0.14,0.13333 0.3366,0.2 0.59,0.2c0.2133,0 0.4233,-0.03333 0.63,-0.1l0,1.19c-0.28,0.09333 -0.5867,0.14 -0.92,0.14c-0.5734,0 -1.0134,-0.16 -1.32,-0.48c-0.3,-0.32 -0.45,-0.77667 -0.45,-1.37l0,-2.77l-0.88,0l0,-1.2l0.88,0l0,-1.68l1.27,0l0,1.68l1.54,0l0,1.2z"/>
  <path id="svg_21" fill="#FF3D62" d="m72.9253,9.09006l0,-5.64l1.27,0l0,0.76l0.05,0c0.1733,-0.28 0.4067,-0.5 0.7,-0.66c0.2933,-0.16 0.61,-0.24 0.95,-0.24c0.5933,0 1.0533,0.19 1.38,0.57c0.3333,0.37333 0.5,0.9 0.5,1.58l0,3.63l-1.27,0l0,-3.38c0,-0.36 -0.1,-0.65 -0.3,-0.87c-0.1933,-0.22667 -0.4467,-0.34 -0.76,-0.34c-0.3733,0 -0.6767,0.12 -0.91,0.36c-0.2267,0.24 -0.34,0.56 -0.34,0.96l0,3.27l-1.27,0z"/>
  <path id="svg_22" fill="#FF3D62" d="m72.1801,9.09001l-1.4,0l-0.75,-2.14l-2.77,0l-0.75,2.14l-1.4,0l2.85,-7.83l1.36,0l2.86,7.83zm-3.57,-6.03l-0.92,2.65l1.91,0l-0.93,-2.65l-0.06,0z"/>
  <path id="svg_23" fill="#256DFF" d="m27.5516,55.65l-1.54,0l0,2.61c0,0.2467 0.0666,0.44 0.2,0.58c0.14,0.1334 0.3366,0.2 0.59,0.2c0.2133,0 0.4233,-0.0333 0.63,-0.1l0,1.19c-0.28,0.0934 -0.5867,0.14 -0.92,0.14c-0.5734,0 -1.0134,-0.16 -1.32,-0.48c-0.3,-0.32 -0.45,-0.7766 -0.45,-1.37l0,-2.77l-0.88,0l0,-1.2l0.88,0l0,-1.68l1.27,0l0,1.68l1.54,0l0,1.2z"/>
  <path id="svg_24" fill="#256DFF" d="m23.0688,52.68c0,0.2467 -0.0734,0.44 -0.22,0.58c-0.14,0.14 -0.3334,0.21 -0.58,0.21c-0.24,0 -0.43,-0.07 -0.57,-0.21c-0.1334,-0.14 -0.2,-0.3333 -0.2,-0.58c0,-0.24 0.0666,-0.43 0.2,-0.57c0.14,-0.1467 0.33,-0.22 0.57,-0.22c0.2466,0 0.44,0.0733 0.58,0.22c0.1466,0.14 0.22,0.33 0.22,0.57zm-0.15,1.77l0,5.64l-1.27,0l0,-5.64l1.27,0z"/>
  <path id="svg_25" fill="#256DFF" d="m20.0426,53.08c-0.2333,0 -0.4267,0.07 -0.58,0.21c-0.1467,0.1333 -0.22,0.33 -0.22,0.59l0,0.57l1.44,0l0,1.2l-1.44,0l0,4.44l-1.28,0l0,-4.44l-0.81,0l0,-1.2l0.81,0l0,-0.64c0,-0.6067 0.1567,-1.0767 0.47,-1.41c0.32,-0.34 0.7633,-0.51 1.33,-0.51c0.38,0 0.7,0.05 0.96,0.15l0,1.2c-0.2533,-0.1067 -0.48,-0.16 -0.68,-0.16z"/>
  <path id="svg_26" fill="#256DFF" d="m13.9093,60.2301c-0.54,0 -1.01,-0.12 -1.41,-0.36c-0.4,-0.24 -0.7067,-0.5834 -0.92,-1.03c-0.2134,-0.4467 -0.32,-0.97 -0.32,-1.57c0,-0.6 0.1066,-1.1234 0.32,-1.57c0.2133,-0.4467 0.52,-0.79 0.92,-1.03c0.4,-0.24 0.87,-0.36 1.41,-0.36c0.54,0 1.01,0.12 1.41,0.36c0.4,0.24 0.7066,0.5833 0.92,1.03c0.22,0.4466 0.33,0.97 0.33,1.57c0,0.6 -0.11,1.1233 -0.33,1.57c-0.2134,0.4466 -0.52,0.79 -0.92,1.03c-0.4,0.24 -0.87,0.36 -1.41,0.36zm0,-1.2c0.42,0 0.75,-0.1567 0.99,-0.47c0.2466,-0.32 0.37,-0.75 0.37,-1.29c0,-0.5467 -0.1234,-0.9767 -0.37,-1.29c-0.24,-0.3134 -0.57,-0.47 -0.99,-0.47c-0.4134,0 -0.7434,0.1566 -0.99,0.47c-0.24,0.3133 -0.36,0.7433 -0.36,1.29c0,0.54 0.12,0.97 0.36,1.29c0.2466,0.3133 0.5766,0.47 0.99,0.47z"/>
  <path id="svg_27" fill="#256DFF" d="m7.37936,60.0901l-0.04,-5.64l1.32,0l0,1.04l0.05,0c0.21333,-0.3734 0.49333,-0.6634 0.84,-0.87c0.35333,-0.2067 0.77004,-0.31 1.25004,-0.31l0.06,0l0,1.28l-0.09,0c-0.6934,0 -1.22004,0.1366 -1.58004,0.41c-0.35334,0.2733 -0.53,0.6466 -0.53,1.12l0,2.97l-1.28,0z"/>
  <path id="svg_28" fill="#256DFF" d="m3.31997,52.26c0.94667,0 1.68333,0.2267 2.21,0.68c0.52667,0.4467 0.79,1.07 0.79,1.87c0,0.8 -0.25667,1.4233 -0.77,1.87c-0.51333,0.4467 -1.22667,0.67 -2.14,0.67l-1.37,0l0,2.74l-1.32,0l0,-7.83l2.6,0zm-0.17,3.88c0.57333,0 1.02,-0.1167 1.34,-0.35c0.32,-0.2333 0.48,-0.56 0.48,-0.98c0,-0.42 -0.16,-0.7467 -0.48,-0.98c-0.32,-0.2333 -0.76667,-0.35 -1.34,-0.35l-1.11,0l0,2.66l1.11,0z"/>
  <path id="svg_29" fill="#FFAB2C" d="m130.148,129.09l0,-7.83l1.27,0l0,2.95l0.05,0c0.173,-0.28 0.407,-0.5 0.7,-0.66c0.293,-0.16 0.61,-0.24 0.95,-0.24c0.593,0 1.053,0.19 1.38,0.57c0.333,0.373 0.5,0.9 0.5,1.58l0,3.63l-1.27,0l0,-3.38c0,-0.36 -0.1,-0.65 -0.3,-0.87c-0.193,-0.227 -0.447,-0.34 -0.76,-0.34c-0.373,0 -0.677,0.12 -0.91,0.36c-0.227,0.24 -0.34,0.56 -0.34,0.96l0,3.27l-1.27,0z"/>
  <path id="svg_30" fill="#FFAB2C" d="m129.296,124.65l-1.54,0l0,2.61c0,0.247 0.066,0.44 0.2,0.58c0.14,0.133 0.336,0.2 0.59,0.2c0.213,0 0.423,-0.033 0.63,-0.1l0,1.19c-0.28,0.093 -0.587,0.14 -0.92,0.14c-0.574,0 -1.014,-0.16 -1.32,-0.48c-0.3,-0.32 -0.45,-0.777 -0.45,-1.37l0,-2.77l-0.88,0l0,-1.2l0.88,0l0,-1.68l1.27,0l0,1.68l1.54,0l0,1.2z"/>
  <path id="svg_31" fill="#FFAB2C" d="m118.594,129.09l-1.81,-5.64l1.38,0l1.1,4.03l0.05,0l1.1,-4.03l1.33,0l1.11,4.03l0.05,0l1.09,-4.03l1.38,0l-1.8,5.64l-1.34,0l-1.13,-4.01l-0.05,0l-1.13,4.01l-1.33,0z"/>
  <path id="svg_32" fill="#FFAB2C" d="m113.788,129.23c-0.54,0 -1.01,-0.12 -1.41,-0.36c-0.4,-0.24 -0.706,-0.583 -0.92,-1.03c-0.213,-0.447 -0.32,-0.97 -0.32,-1.57c0,-0.6 0.107,-1.123 0.32,-1.57c0.214,-0.447 0.52,-0.79 0.92,-1.03c0.4,-0.24 0.87,-0.36 1.41,-0.36c0.54,0 1.01,0.12 1.41,0.36c0.4,0.24 0.707,0.583 0.92,1.03c0.22,0.447 0.33,0.97 0.33,1.57c0,0.6 -0.11,1.123 -0.33,1.57c-0.213,0.447 -0.52,0.79 -0.92,1.03c-0.4,0.24 -0.87,0.36 -1.41,0.36zm0,-1.2c0.42,0 0.75,-0.157 0.99,-0.47c0.247,-0.32 0.37,-0.75 0.37,-1.29c0,-0.547 -0.123,-0.977 -0.37,-1.29c-0.24,-0.313 -0.57,-0.47 -0.99,-0.47c-0.413,0 -0.743,0.157 -0.99,0.47c-0.24,0.313 -0.36,0.743 -0.36,1.29c0,0.54 0.12,0.97 0.36,1.29c0.247,0.313 0.577,0.47 0.99,0.47z"/>
  <path id="svg_33" fill="#FFAB2C" d="m107.258,129.09l-0.04,-5.64l1.32,0l0,1.04l0.05,0c0.214,-0.373 0.494,-0.663 0.84,-0.87c0.354,-0.207 0.77,-0.31 1.25,-0.31l0.06,0l0,1.28l-0.09,0c-0.693,0 -1.22,0.137 -1.58,0.41c-0.353,0.273 -0.53,0.647 -0.53,1.12l0,2.97l-1.28,0z"/>
  <path id="svg_34" fill="#FFAB2C" d="m103.09,122.36c-0.453,0 -0.85,0.113 -1.19,0.34c-0.333,0.227 -0.59,0.553 -0.77,0.98c-0.18,0.427 -0.27,0.927 -0.27,1.5c0,0.88 0.193,1.57 0.58,2.07c0.387,0.493 0.917,0.74 1.59,0.74c0.333,0 0.63,-0.063 0.89,-0.19c0.267,-0.127 0.51,-0.313 0.73,-0.56l0,-1.27l-1.74,0l0,-1.22l3.02,0l0,2.98c-0.38,0.493 -0.813,0.867 -1.3,1.12c-0.487,0.253 -1.02,0.38 -1.6,0.38c-0.713,0 -1.337,-0.163 -1.87,-0.49c-0.527,-0.333 -0.937,-0.803 -1.23,-1.41c-0.2867,-0.613 -0.43,-1.33 -0.43,-2.15c0,-0.82 0.1467,-1.533 0.44,-2.14c0.293,-0.613 0.71,-1.087 1.25,-1.42c0.547,-0.333 1.18,-0.5 1.9,-0.5c0.613,0 1.157,0.14 1.63,0.42c0.48,0.273 0.863,0.657 1.15,1.15l-1.04,0.74c-0.193,-0.327 -0.45,-0.587 -0.77,-0.78c-0.313,-0.193 -0.637,-0.29 -0.97,-0.29z"/>
  <path id="svg_35" fill="#00AA07" d="m75.3675,129.09l-2.21,-5.64l1.42,0l1.48,4.1l0.06,0l1.4,-4.1l1.42,0l-3.16,8.09l-1.38,0l0.97,-2.45z"/>
  <path id="svg_36" fill="#00AA07" d="m72.9051,124.65l-1.54,0l0,2.61c0,0.247 0.0667,0.44 0.2,0.58c0.14,0.133 0.3367,0.2 0.59,0.2c0.2133,0 0.4233,-0.033 0.63,-0.1l0,1.19c-0.28,0.093 -0.5867,0.14 -0.92,0.14c-0.5733,0 -1.0133,-0.16 -1.32,-0.48c-0.3,-0.32 -0.45,-0.777 -0.45,-1.37l0,-2.77l-0.88,0l0,-1.2l0.88,0l0,-1.68l1.27,0l0,1.68l1.54,0l0,1.2z"/>
  <path id="svg_37" fill="#00AA07" d="m68.4223,121.68c0,0.247 -0.0733,0.44 -0.22,0.58c-0.14,0.14 -0.3333,0.21 -0.58,0.21c-0.24,0 -0.43,-0.07 -0.57,-0.21c-0.1333,-0.14 -0.2,-0.333 -0.2,-0.58c0,-0.24 0.0667,-0.43 0.2,-0.57c0.14,-0.147 0.33,-0.22 0.57,-0.22c0.2467,0 0.44,0.073 0.58,0.22c0.1467,0.14 0.22,0.33 0.22,0.57zm-0.15,1.77l0,5.64l-1.27,0l0,-5.64l1.27,0z"/>
  <path id="svg_38" fill="#00AA07" d="m64.1096,126.23l2.04,2.86l-1.53,0l-1.24,-1.91l-1.24,1.91l-1.53,0l2.08,-2.92l-1.93,-2.72l1.5,0l1.18,1.8l1.12,-1.8l1.49,0l-1.94,2.78z"/>
  <path id="svg_39" fill="#00AA07" d="m60.2496,125.83c0,0.333 -0.0333,0.63 -0.1,0.89l-3.75,0c0.0533,0.447 0.2033,0.797 0.45,1.05c0.2467,0.247 0.5767,0.37 0.99,0.37c0.26,0 0.4967,-0.067 0.71,-0.2c0.22,-0.14 0.4,-0.337 0.54,-0.59l1.03,0.53c-0.2133,0.427 -0.5133,0.76 -0.9,1c-0.3867,0.233 -0.8467,0.35 -1.38,0.35c-0.56,0 -1.05,-0.117 -1.47,-0.35c-0.4133,-0.24 -0.7333,-0.58 -0.96,-1.02c-0.22,-0.447 -0.33,-0.967 -0.33,-1.56c0,-0.607 0.1067,-1.133 0.32,-1.58c0.22,-0.453 0.53,-0.8 0.93,-1.04c0.4,-0.247 0.87,-0.37 1.41,-0.37c0.5067,0 0.95,0.103 1.33,0.31c0.38,0.207 0.67,0.5 0.87,0.88c0.2067,0.38 0.31,0.823 0.31,1.33zm-1.3,-0.19c0,-0.38 -0.11,-0.683 -0.33,-0.91c-0.22,-0.227 -0.5133,-0.34 -0.88,-0.34c-0.3467,0 -0.63,0.11 -0.85,0.33c-0.22,0.213 -0.37,0.52 -0.45,0.92l2.51,0z"/>
  <path id="svg_40" fill="#00AA07" d="m52.5562,121.26l1.27,0l0,6.3c0,0.253 0.1266,0.38 0.38,0.38l0.28,0l0,1.2l-0.64,0c-0.42,0 -0.74,-0.1 -0.96,-0.3c-0.22,-0.207 -0.33,-0.503 -0.33,-0.89l0,-6.69z"/>
  <path id="svg_41" fill="#00AA07" d="m46.2573,131.53l0,-8.08l1.27,0l0,0.73l0.06,0c0.1867,-0.273 0.42,-0.487 0.7,-0.64c0.2867,-0.153 0.5934,-0.23 0.92,-0.23c0.4534,0 0.8534,0.12 1.2,0.36c0.3534,0.24 0.6267,0.58 0.82,1.02c0.1934,0.433 0.29,0.933 0.29,1.5c0,0.6 -0.0966,1.13 -0.29,1.59c-0.1933,0.46 -0.4666,0.817 -0.82,1.07c-0.3533,0.253 -0.7566,0.38 -1.21,0.38c-0.34,0 -0.65,-0.077 -0.93,-0.23c-0.2733,-0.147 -0.5,-0.36 -0.68,-0.64l-0.06,0l0,3.17l-1.27,0zm1.23,-5.26c0,0.527 0.1234,0.95 0.37,1.27c0.2467,0.32 0.5667,0.48 0.96,0.48c0.4134,0 0.75,-0.16 1.01,-0.48c0.26,-0.32 0.39,-0.743 0.39,-1.27c0,-0.52 -0.1266,-0.94 -0.38,-1.26c-0.2533,-0.327 -0.58,-0.49 -0.98,-0.49c-0.4066,0 -0.7366,0.163 -0.99,0.49c-0.2533,0.32 -0.38,0.74 -0.38,1.26z"/>
  <path id="svg_42" fill="#00AA07" d="m37.0776,129.09l0,-5.64l1.27,0l0,0.75l0.06,0c0.1667,-0.28 0.3834,-0.497 0.65,-0.65c0.2667,-0.16 0.56,-0.24 0.88,-0.24c0.34,0 0.6334,0.087 0.88,0.26c0.2534,0.167 0.4467,0.413 0.58,0.74l0.05,0c0.4134,-0.667 1.01,-1 1.79,-1c0.56,0 0.9967,0.187 1.31,0.56c0.3134,0.373 0.47,0.897 0.47,1.57l0,3.65l-1.28,0l0,-3.39c0,-0.373 -0.0833,-0.667 -0.25,-0.88c-0.1666,-0.22 -0.3933,-0.33 -0.68,-0.33c-0.3466,0 -0.62,0.117 -0.82,0.35c-0.2,0.233 -0.3,0.553 -0.3,0.96l0,3.29l-1.28,0l0,-3.39c0,-0.373 -0.0833,-0.667 -0.25,-0.88c-0.1666,-0.22 -0.3933,-0.33 -0.68,-0.33c-0.3466,0 -0.6233,0.117 -0.83,0.35c-0.2,0.233 -0.3,0.553 -0.3,0.96l0,3.29l-1.27,0z"/>
  <path id="svg_43" fill="#00AA07" d="m33.3644,129.23c-0.54,0 -1.01,-0.12 -1.41,-0.36c-0.4,-0.24 -0.7067,-0.583 -0.92,-1.03c-0.2134,-0.447 -0.32,-0.97 -0.32,-1.57c0,-0.6 0.1066,-1.123 0.32,-1.57c0.2133,-0.447 0.52,-0.79 0.92,-1.03c0.4,-0.24 0.87,-0.36 1.41,-0.36c0.54,0 1.01,0.12 1.41,0.36c0.4,0.24 0.7066,0.583 0.92,1.03c0.22,0.447 0.33,0.97 0.33,1.57c0,0.6 -0.11,1.123 -0.33,1.57c-0.2134,0.447 -0.52,0.79 -0.92,1.03c-0.4,0.24 -0.87,0.36 -1.41,0.36zm0,-1.2c0.42,0 0.75,-0.157 0.99,-0.47c0.2466,-0.32 0.37,-0.75 0.37,-1.29c0,-0.547 -0.1234,-0.977 -0.37,-1.29c-0.24,-0.313 -0.57,-0.47 -0.99,-0.47c-0.4134,0 -0.7434,0.157 -0.99,0.47c-0.24,0.313 -0.36,0.743 -0.36,1.29c0,0.54 0.12,0.97 0.36,1.29c0.2466,0.313 0.5766,0.47 0.99,0.47z"/>
  <path id="svg_44" fill="#00AA07" d="m29.91,127.59c-0.28,0.52 -0.6667,0.923 -1.16,1.21c-0.4867,0.287 -1.04,0.43 -1.66,0.43c-0.7,0 -1.3233,-0.17 -1.87,-0.51c-0.54,-0.347 -0.9633,-0.83 -1.27,-1.45c-0.3,-0.62 -0.45,-1.33 -0.45,-2.13c0,-0.787 0.15,-1.483 0.45,-2.09c0.3067,-0.613 0.7333,-1.087 1.28,-1.42c0.5533,-0.34 1.19,-0.51 1.91,-0.51c0.62,0 1.1667,0.147 1.64,0.44c0.4733,0.293 0.8467,0.693 1.12,1.2l-1.13,0.59c-0.1733,-0.313 -0.4133,-0.557 -0.72,-0.73c-0.3,-0.173 -0.6233,-0.26 -0.97,-0.26c-0.4333,0 -0.82,0.117 -1.16,0.35c-0.3333,0.233 -0.5933,0.56 -0.78,0.98c-0.18,0.42 -0.27,0.903 -0.27,1.45c0,0.553 0.09,1.047 0.27,1.48c0.1867,0.433 0.4467,0.77 0.78,1.01c0.34,0.24 0.7267,0.36 1.16,0.36c0.34,0 0.6567,-0.087 0.95,-0.26c0.3,-0.18 0.55,-0.427 0.75,-0.74l1.13,0.6z"/>
  <path id="svg_45" fill="#B519FF" d="m167.091,60.09l0,-1.48l1.48,0l0,1.48l-1.48,0z"/>
  <path id="svg_46" fill="#B519FF" d="m165.793,62.5401l-1.28,0l0,-3.18l-0.06,0c-0.167,0.28 -0.384,0.4933 -0.65,0.64c-0.267,0.1533 -0.564,0.23 -0.89,0.23c-0.467,0 -0.88,-0.1234 -1.24,-0.37c-0.36,-0.2534 -0.64,-0.6067 -0.84,-1.06c-0.2,-0.46 -0.3,-0.9867 -0.3,-1.58c0,-0.5734 0.096,-1.08 0.29,-1.52c0.2,-0.44 0.476,-0.78 0.83,-1.02c0.353,-0.2467 0.76,-0.37 1.22,-0.37c0.326,0 0.626,0.0766 0.9,0.23c0.273,0.1533 0.5,0.37 0.68,0.65l0.06,0l0,-0.74l1.28,0l0,8.09zm-1.24,-5.26c0,-0.5267 -0.127,-0.95 -0.38,-1.27c-0.247,-0.32 -0.574,-0.48 -0.98,-0.48c-0.4,0 -0.727,0.1633 -0.98,0.49c-0.254,0.32 -0.38,0.74 -0.38,1.26c0,0.52 0.13,0.94 0.39,1.26c0.26,0.32 0.596,0.48 1.01,0.48c0.393,0 0.71,-0.16 0.95,-0.48c0.246,-0.32 0.37,-0.74 0.37,-1.26z"/>
  <path id="svg_47" fill="#B519FF" d="m159.736,56.8301c0,0.3333 -0.033,0.63 -0.1,0.89l-3.75,0c0.053,0.4466 0.203,0.7966 0.45,1.05c0.247,0.2466 0.577,0.37 0.99,0.37c0.26,0 0.497,-0.0667 0.71,-0.2c0.22,-0.14 0.4,-0.3367 0.54,-0.59l1.03,0.53c-0.213,0.4266 -0.513,0.76 -0.9,1c-0.387,0.2333 -0.847,0.35 -1.38,0.35c-0.56,0 -1.05,-0.1167 -1.47,-0.35c-0.413,-0.24 -0.733,-0.58 -0.96,-1.02c-0.22,-0.4467 -0.33,-0.9667 -0.33,-1.56c0,-0.6067 0.107,-1.1334 0.32,-1.58c0.22,-0.4534 0.53,-0.8 0.93,-1.04c0.4,-0.2467 0.87,-0.37 1.41,-0.37c0.507,0 0.95,0.1033 1.33,0.31c0.38,0.2066 0.67,0.5 0.87,0.88c0.207,0.38 0.31,0.8233 0.31,1.33zm-1.3,-0.19c0,-0.38 -0.11,-0.6834 -0.33,-0.91c-0.22,-0.2267 -0.513,-0.34 -0.88,-0.34c-0.347,0 -0.63,0.11 -0.85,0.33c-0.22,0.2133 -0.37,0.52 -0.45,0.92l2.51,0z"/>
  <path id="svg_48" fill="#B519FF" d="m150.686,60.0901l-0.04,-5.64l1.32,0l0,1.04l0.05,0c0.213,-0.3734 0.493,-0.6634 0.84,-0.87c0.353,-0.2067 0.77,-0.31 1.25,-0.31l0.06,0l0,1.28l-0.09,0c-0.693,0 -1.22,0.1366 -1.58,0.41c-0.353,0.2733 -0.53,0.6466 -0.53,1.12l0,2.97l-1.28,0z"/>
  <path id="svg_49" fill="#B519FF" d="m146.04,56.9l0,3.19l-1.32,0l0,-7.83l4.86,0l0,1.24l-3.54,0l0,2.16l3.29,0l0,1.24l-3.29,0z"/>
  <path id="svg_55" fill="white" d="m63.7658,102.075c0,0.381 -0.3096,0.691 -0.6915,0.691c-0.3819,0 -0.6915,-0.31 -0.6915,-0.691c0,-0.382 0.3096,-0.692 0.6915,-0.692c0.3819,0 0.6915,0.31 0.6915,0.692z"/>
  <path id="svg_57" fill="white" d="m48.7658,58.0746c0,0.3819 -0.3096,0.6915 -0.6915,0.6915c-0.3819,0 -0.6915,-0.3096 -0.6915,-0.6915c0,-0.3819 0.3096,-0.6915 0.6915,-0.6915c0.3819,0 0.6915,0.3096 0.6915,0.6915z"/>
  <path id="svg_61" fill="white" d="m124.766,58.0746c0,0.3819 -0.31,0.6915 -0.692,0.6915c-0.382,0 -0.691,-0.3096 -0.691,-0.6915c0,-0.3819 0.309,-0.6915 0.691,-0.6915c0.382,0 0.692,0.3096 0.692,0.6915z"/>
  <path id="svg_63" fill="white" d="m87.1711,49.0746c0,0.3819 -0.3096,0.6915 -0.6915,0.6915c-0.3819,0 -0.6915,-0.3096 -0.6915,-0.6915c0,-0.3819 0.3096,-0.6915 0.6915,-0.6915c0.3819,0 0.6915,0.3096 0.6915,0.6915z"/>
 </g>
</svg>
